<svg width="24" height="24" viewBox="0 0 24 24" fill="none" xmlns="http://www.w3.org/2000/svg">
<path d="M19.3399 14.49L18.3399 12.83C18.1299 12.46 17.9399 11.76 17.9399 11.35V8.82004C17.9387 7.70407 17.6216 6.61125 17.0252 5.66801C16.4288 4.72477 15.5776 3.96966 14.5699 3.49004C14.3128 3.03338 13.9376 2.65418 13.4838 2.39207C13.0299 2.12997 12.514 1.99457 11.9899 2.00004C10.8999 2.00004 9.91994 2.59004 9.39994 3.52004C7.44994 4.49004 6.09994 6.50004 6.09994 8.82004V11.35C6.09994 11.76 5.90994 12.46 5.69994 12.82L4.68994 14.49C4.28994 15.16 4.19994 15.9 4.44994 16.58C4.68994 17.25 5.25994 17.77 5.99994 18.02C7.93994 18.68 9.97994 19 12.0199 19C14.0599 19 16.0999 18.68 18.0399 18.03C18.7399 17.8 19.2799 17.27 19.5399 16.58C19.7999 15.89 19.7299 15.13 19.3399 14.49Z" fill="white"/>
<path d="M14.8302 20.01C14.6199 20.5922 14.2355 21.0954 13.7291 21.4515C13.2228 21.8075 12.6191 21.999 12.0002 22C11.2102 22 10.4302 21.68 9.88018 21.11C9.56018 20.81 9.32018 20.41 9.18018 20C9.31018 20.02 9.44018 20.03 9.58018 20.05C9.81018 20.08 10.0502 20.11 10.2902 20.13C10.8602 20.18 11.4402 20.21 12.0202 20.21C12.5902 20.21 13.1602 20.18 13.7202 20.13C13.9302 20.11 14.1402 20.1 14.3402 20.07L14.8302 20.01Z" fill="white"/>
<circle cx="17" cy="6" r="5" fill="#EB5757" stroke="#2867BC" stroke-width="2"/>
</svg>
