<svg width="200" height="200" viewBox="0 0 200 200" fill="none" xmlns="http://www.w3.org/2000/svg">
<g clip-path="url(#clip0_4_1032)">
<path d="M71.0395 -6.10351e-06L116.983 34.0684L70.3434 75.3684C69.8082 75.2437 69.3414 74.95 68.991 74.5555C68.6008 74.1008 68.3594 73.5133 68.3594 72.8652V2.56328C68.3594 1.80663 68.6895 1.12656 69.2125 0.65976C69.6672 0.249213 70.2668 -0.000396729 70.9227 -0.000396729H71.0395V-6.10351e-06Z" fill="#FCA863"/>
<path d="M179.209 2.56328V72.8652C179.209 73.5129 178.967 74.1008 178.577 74.5555C178.227 74.95 177.76 75.2437 177.225 75.3684L130.585 34.0684L176.528 0H176.645C177.305 0 177.901 0.249609 178.355 0.660156C178.878 1.12695 179.209 1.80703 179.209 2.56328Z" fill="#FCA863"/>
<path d="M71.0395 -6.10354e-06L116.983 34.0683L108.114 41.9234L68.3594 12.4426V2.56327C68.3594 1.80663 68.6895 1.12656 69.2125 0.65976C69.6672 0.249213 70.2668 -0.000396729 70.9227 -0.000396729H71.0395V-6.10354e-06Z" fill="#FC9744"/>
<path d="M179.209 2.56328V72.8652C179.209 73.5129 178.967 74.1008 178.577 74.5555C178.227 74.95 177.76 75.2437 177.225 75.3684L164.143 63.7828V33.2879C164.143 29.2879 159.588 26.9941 156.372 29.3766L139.454 41.9238L130.585 34.0688L176.529 0H176.645C177.306 0 177.901 0.249609 178.356 0.660156C178.879 1.12695 179.209 1.80703 179.209 2.56328Z" fill="#FC9744"/>
<path d="M178.575 74.5523C178.106 75.091 177.414 75.432 176.644 75.432H70.9242C70.1546 75.432 69.4625 75.091 68.9929 74.5523L123.784 26.0344L178.575 74.5523Z" fill="#FB8627"/>
<path d="M140.691 41.0058L132.781 46.8711C130.158 48.8113 127.046 49.8387 123.784 49.8387C120.522 49.8387 117.41 48.8113 114.787 46.8711L106.877 41.0058L123.784 26.034L140.691 41.0058Z" fill="#FB7722"/>
<path d="M178.355 0.657037L126.839 38.8567C125.025 40.2024 122.544 40.2024 120.729 38.8567L69.2133 0.657037C69.6672 0.249225 70.2672 0.000396729 70.9238 0.000396729H176.645C177.301 0.000396729 177.901 0.249225 178.355 0.657037Z" fill="#FEE265"/>
<path d="M117.697 60.0067H129.872" stroke="black" stroke-width="15" stroke-miterlimit="10" stroke-linecap="round" stroke-linejoin="round"/>
<path d="M28.6449 49.4004L74.5886 83.4688L27.9488 124.769C27.4136 124.644 26.9429 124.35 26.5968 123.956C26.2023 123.501 25.9652 122.914 25.9652 122.266V51.9637C25.9652 51.2031 26.2914 50.527 26.8183 50.0563C27.2691 49.65 27.8687 49.4004 28.5285 49.4004H28.6449Z" fill="#FCA863"/>
<path d="M136.81 51.9637V122.266C136.81 122.914 136.573 123.501 136.178 123.956C135.832 124.35 135.361 124.644 134.826 124.769L88.1863 83.4688L134.13 49.4004H134.247C134.907 49.4004 135.506 49.65 135.961 50.0563C136.484 50.5273 136.81 51.2031 136.81 51.9637Z" fill="#FCA863"/>
<path d="M28.6449 49.4004L74.5886 83.4688L65.7195 91.3238L25.9652 61.843V51.9637C25.9652 51.2031 26.2914 50.527 26.8183 50.0563C27.2691 49.65 27.8687 49.4004 28.5285 49.4004H28.6449Z" fill="#FC9744"/>
<path d="M136.81 51.9637V122.266C136.81 122.914 136.573 123.501 136.178 123.956C135.832 124.35 135.361 124.644 134.826 124.769L121.744 113.183V82.6883C121.744 78.6883 117.188 76.3945 113.977 78.777L97.0554 91.3242L88.1863 83.4691L134.13 49.4008H134.247C134.907 49.4008 135.506 49.6504 135.961 50.0566C136.484 50.5274 136.81 51.2031 136.81 51.9637Z" fill="#FC9744"/>
<path d="M136.179 123.952C135.71 124.491 135.018 124.832 134.248 124.832H28.5277C27.7582 124.832 27.066 124.491 26.5964 123.952L81.3878 75.4336L136.179 123.952Z" fill="#FB8627"/>
<path d="M98.2949 90.4055L90.3852 96.2707C87.7617 98.2109 84.6496 99.2383 81.3879 99.2383C78.1262 99.2383 75.0141 98.2109 72.3906 96.2707L64.4805 90.4055L81.3875 75.4336L98.2949 90.4055Z" fill="#FB7722"/>
<path d="M135.959 50.0566L84.4429 88.2563C82.6285 89.602 80.1472 89.602 78.3324 88.2563L26.8168 50.0566C27.2707 49.6488 27.8707 49.4 28.5273 49.4H134.248C134.905 49.4 135.505 49.6488 135.959 50.0566Z" fill="#FEE265"/>
<path d="M75.3008 109.406H87.475" stroke="black" stroke-width="15" stroke-miterlimit="10" stroke-linecap="round" stroke-linejoin="round"/>
<path d="M47.5668 98.8008L93.5066 132.865L46.8664 174.169C46.3312 174.04 45.8645 173.751 45.5145 173.356C45.1242 172.902 44.8828 172.314 44.8828 171.666V101.364C44.8828 100.604 45.2129 99.9273 45.7359 99.4566C46.1906 99.0504 46.7863 98.8008 47.4461 98.8008H47.5668Z" fill="#FCA863"/>
<path d="M155.732 101.364V171.666C155.732 172.314 155.49 172.901 155.1 173.356C154.75 173.75 154.283 174.04 153.748 174.169L107.108 132.865L153.047 98.8008H153.168C153.824 98.8008 154.423 99.0504 154.878 99.4566C155.402 99.9277 155.732 100.604 155.732 101.364Z" fill="#FCA863"/>
<path d="M47.5668 98.8008L93.5066 132.865L84.6375 140.72L44.8828 111.243V101.364C44.8828 100.604 45.2129 99.9273 45.7359 99.4566C46.1906 99.0504 46.7863 98.8008 47.4461 98.8008H47.5668Z" fill="#FC9744"/>
<path d="M155.732 101.364V171.666C155.732 172.314 155.49 172.901 155.1 173.356C154.75 173.75 154.283 174.04 153.748 174.169L140.666 162.583V132.088C140.666 128.088 136.11 125.795 132.895 128.177L115.977 140.72L107.108 132.865L153.048 98.8008H153.168C153.824 98.8008 154.424 99.0504 154.878 99.4566C155.402 99.9277 155.732 100.604 155.732 101.364Z" fill="#FC9744"/>
<path d="M155.098 173.352C154.629 173.89 153.937 174.231 153.167 174.231H47.4469C46.6773 174.231 45.9852 173.89 45.5156 173.352L100.307 124.833L155.098 173.352Z" fill="#FB8627"/>
<path d="M117.214 139.805L109.304 145.67C106.681 147.611 103.569 148.638 100.307 148.638C97.0454 148.638 93.9333 147.611 91.3098 145.67L83.3997 139.805L100.307 124.833L117.214 139.805Z" fill="#FB7722"/>
<path d="M154.878 99.4563L103.363 137.656C101.548 139.002 99.0668 139.002 97.252 137.656L45.7363 99.4563C46.1902 99.0484 46.7902 98.7996 47.4469 98.7996H153.167C153.824 98.7996 154.424 99.0484 154.878 99.4563Z" fill="#FEE265"/>
<path d="M106.394 161.824H94.2199C92.5527 161.824 91.2019 160.473 91.2019 158.806C91.2019 157.139 92.5531 155.788 94.2199 155.788H106.394C108.062 155.788 109.412 157.139 109.412 158.806C109.412 160.473 108.061 161.824 106.394 161.824Z" fill="#FEE265"/>
<path d="M174.316 174.336V184.759C174.316 185.871 173.416 186.771 172.304 186.771H28.3101C27.1988 186.771 26.298 185.871 26.298 184.759V174.336C26.298 172.289 24.6386 170.629 22.5917 170.629H16.7753C14.7285 170.629 13.0691 172.289 13.0691 174.336V196.294C13.0691 198.341 14.7285 200 16.7753 200H183.839C185.886 200 187.545 198.341 187.545 196.294V174.336C187.545 172.289 185.886 170.629 183.839 170.629H178.022C175.976 170.629 174.316 172.289 174.316 174.336Z" fill="#FB4A59"/>
<path d="M193.907 75.852L175.028 94.7312C174.009 95.7496 172.36 95.7496 171.341 94.7312L152.457 75.852C150.817 74.2113 151.981 71.402 154.305 71.402H159.076C160.188 71.402 161.089 70.5012 161.089 69.3898V57.9801C161.089 56.5402 162.256 55.3734 163.695 55.3734H182.669C184.111 55.3734 185.275 56.5426 185.275 57.9801V69.3898C185.275 70.5012 186.176 71.402 187.287 71.402H192.063C194.388 71.402 195.547 74.2113 193.907 75.852Z" fill="#27D1B3"/>
<path d="M193.909 75.8512L175.027 94.7324C174.009 95.7504 172.359 95.7504 171.341 94.7324L166.923 90.3141L181.382 75.8512C183.023 74.2133 181.864 71.4004 179.539 71.4004H172.75V57.9797C172.75 56.543 171.587 55.3719 170.146 55.3719H182.669C184.11 55.3719 185.277 56.543 185.277 57.9797V69.3883C185.277 70.4996 186.178 71.4004 187.289 71.4004H192.066C194.387 71.4004 195.546 74.2133 193.909 75.8512Z" fill="#20B69F"/>
<path d="M47.541 41.684L28.6617 60.5633C27.6433 61.5817 25.9937 61.5817 24.9753 60.5633L6.09135 41.684C4.45073 40.0434 5.61518 37.234 7.9394 37.234H12.7109C13.8222 37.234 14.723 36.3332 14.723 35.2219V23.8121C14.723 22.3723 15.8902 21.2055 17.3296 21.2055H36.3031C37.7457 21.2055 38.9097 22.3746 38.9097 23.8121V35.2219C38.9097 36.3332 39.8105 37.234 40.9218 37.234H45.6976C48.0218 37.234 49.1816 40.0434 47.541 41.684Z" fill="#27D1B3"/>
<path d="M47.5426 41.682L28.6613 60.5633C27.6433 61.5813 25.9929 61.5813 24.9754 60.5633L20.557 56.1449L35.0156 41.682C36.6574 40.0441 35.4984 37.2355 33.1726 37.2355H26.3836V23.8109C26.3836 22.3742 25.2207 21.2031 23.7801 21.2031H36.3031C37.7437 21.2031 38.9109 22.3742 38.9109 23.8109V35.2234C38.9109 36.3348 39.8117 37.2355 40.923 37.2355H45.6996C48.0215 37.2355 49.1804 40.0441 47.5426 41.682Z" fill="#20B69F"/>
</g>
<defs>
<clipPath id="clip0_4_1032">
<rect width="200" height="200" fill="white"/>
</clipPath>
</defs>
</svg>
