<svg width="225" height="70" viewBox="0 0 225 70" fill="none" xmlns="http://www.w3.org/2000/svg">
<path d="M3.414 13.7782C2.5 14.0002 2 15.1922 2 15.1922C2 15.1922 5.398 15.6262 6.949 17.3132C8.5 19.0002 9.071 22.2632 9.071 22.2632C9.071 22.2632 10.47 22.6982 10.485 20.8492C10.5 19.0002 9.778 17.3132 9.778 17.3132L13.091 14.0002L16.701 21.7042C16.701 21.7042 18.08 22.2302 18.04 20.3652C18 18.5002 16.85 10.2422 16.85 10.2422L19.678 7.41319C19.869 7.22869 20.0214 7.008 20.1262 6.76399C20.231 6.51999 20.2862 6.25755 20.2885 5.99199C20.2908 5.72643 20.2402 5.46307 20.1396 5.21728C20.0391 4.97149 19.8906 4.74818 19.7028 4.5604C19.515 4.37261 19.2917 4.2241 19.0459 4.12354C18.8001 4.02298 18.5368 3.97238 18.2712 3.97468C18.0056 3.97699 17.7432 4.03217 17.4992 4.13698C17.2552 4.2418 17.0345 4.39417 16.85 4.58519L13.947 7.48819C13.947 7.48819 6.148 6.09419 3.824 6.29719C1.5 6.50018 2.559 7.56319 2.559 7.56319L10.203 11.2332L6.95 14.4862C6.95 14.4862 4.328 13.5562 3.414 13.7782Z" fill="#2F80ED"/>
<path d="M28.9404 18.5H30.8389V12.7871C30.8389 11.6006 31.6387 10.7217 32.7637 10.7217C33.8359 10.7217 34.5127 11.3984 34.5127 12.4619V18.5H36.376V12.7256C36.376 11.5566 37.1582 10.7217 38.2832 10.7217C39.4082 10.7217 40.0498 11.4072 40.0498 12.6025V18.5H41.957V12.1455C41.957 10.3086 40.7617 9.0957 38.9336 9.0957C37.6152 9.0957 36.5254 9.78125 36.0508 10.9062H36.0068C35.6377 9.75488 34.7061 9.0957 33.4229 9.0957C32.1748 9.0957 31.208 9.78125 30.7949 10.8096H30.751V9.25391H28.9404V18.5ZM45.068 21.9453C46.9928 21.9453 47.8981 21.2246 48.6891 18.9834L52.1608 9.25391H50.1569L47.8102 16.7773H47.7838L45.4371 9.25391H43.3805L46.7204 18.5088C46.7204 18.5176 46.5534 19.0625 46.5534 19.0801C46.2633 20.0293 45.7975 20.3984 44.9098 20.3984C44.7516 20.3984 44.4352 20.3984 44.2946 20.3633V21.9014C44.4352 21.9277 44.9186 21.9453 45.068 21.9453ZM57.8818 5.81738V18.5H62.3554C66.1347 18.5 68.3583 16.1445 68.3583 12.1367C68.3583 8.1377 66.1259 5.81738 62.3554 5.81738H57.8818ZM59.8505 7.51367H62.1708C64.8515 7.51367 66.3456 9.16602 66.3456 12.1543C66.3456 15.1514 64.8603 16.7949 62.1708 16.7949H59.8505V7.51367ZM70.3707 18.5H72.2691V12.9629C72.2691 11.6533 73.025 10.8359 74.2466 10.8359C74.6158 10.8359 74.9498 10.8799 75.0992 10.9414V9.1748C74.9586 9.14844 74.7212 9.10449 74.4488 9.10449C73.3589 9.10449 72.5328 9.74609 72.2252 10.8271H72.1812V9.25391H70.3707V18.5ZM80.0998 10.6162C81.427 10.6162 82.3234 11.6094 82.3674 13.0244H77.7443C77.841 11.627 78.7727 10.6162 80.0998 10.6162ZM82.3586 15.7842C82.1037 16.5928 81.3039 17.1377 80.2229 17.1377C78.7023 17.1377 77.7355 16.0742 77.7355 14.4658V14.3516H84.2658V13.7012C84.2658 10.8975 82.6662 9.08691 80.0998 9.08691C77.4895 9.08691 75.8195 11.0205 75.8195 13.9209C75.8195 16.8389 77.4631 18.6758 80.1789 18.6758C82.2971 18.6758 83.8967 17.4717 84.1604 15.7842H82.3586ZM89.3368 17.1553C88.3172 17.1553 87.6493 16.6279 87.6493 15.8193C87.6493 15.0283 88.2909 14.5273 89.4246 14.4482L91.701 14.3076V15.0371C91.701 16.2412 90.6639 17.1553 89.3368 17.1553ZM88.8094 18.6582C90.0223 18.6582 91.1912 18.0078 91.7274 16.9795H91.7713V18.5H93.5907V12.1279C93.5907 10.2734 92.158 9.08691 89.9168 9.08691C87.6317 9.08691 86.2079 10.3174 86.1024 11.9873H87.8954C88.0623 11.1611 88.7479 10.6338 89.8465 10.6338C91.0067 10.6338 91.701 11.249 91.701 12.2773V12.9893L89.1698 13.1387C86.9725 13.2617 85.7332 14.2549 85.7332 15.8721C85.7332 17.5332 86.9989 18.6582 88.8094 18.6582ZM95.7964 18.5H97.6948V12.7871C97.6948 11.6006 98.4946 10.7217 99.6196 10.7217C100.692 10.7217 101.369 11.3984 101.369 12.4619V18.5H103.232V12.7256C103.232 11.5566 104.014 10.7217 105.139 10.7217C106.264 10.7217 106.906 11.4072 106.906 12.6025V18.5H108.813V12.1455C108.813 10.3086 107.618 9.0957 105.79 9.0957C104.471 9.0957 103.381 9.78125 102.907 10.9062H102.863C102.494 9.75488 101.562 9.0957 100.279 9.0957C99.0307 9.0957 98.0639 9.78125 97.6509 10.8096H97.6069V9.25391H95.7964V18.5ZM115.255 5.81738V18.5H117.223V14.167H119.948C122.435 14.167 124.184 12.4619 124.184 9.9834C124.184 7.51367 122.47 5.81738 120.01 5.81738H115.255ZM117.223 7.47852H119.491C121.196 7.47852 122.172 8.39258 122.172 9.99219C122.172 11.5918 121.196 12.5146 119.482 12.5146H117.223V7.47852ZM126.109 18.5H128.007V5.81738H126.109V18.5ZM133.553 17.1553C132.533 17.1553 131.865 16.6279 131.865 15.8193C131.865 15.0283 132.507 14.5273 133.641 14.4482L135.917 14.3076V15.0371C135.917 16.2412 134.88 17.1553 133.553 17.1553ZM133.025 18.6582C134.238 18.6582 135.407 18.0078 135.943 16.9795H135.987V18.5H137.807V12.1279C137.807 10.2734 136.374 9.08691 134.133 9.08691C131.848 9.08691 130.424 10.3174 130.318 11.9873H132.111C132.278 11.1611 132.964 10.6338 134.063 10.6338C135.223 10.6338 135.917 11.249 135.917 12.2773V12.9893L133.386 13.1387C131.189 13.2617 129.949 14.2549 129.949 15.8721C129.949 17.5332 131.215 18.6582 133.025 18.6582ZM147.949 12.4355C147.782 10.6162 146.332 9.08691 143.95 9.08691C141.322 9.08691 139.599 10.9414 139.599 13.877C139.599 16.8652 141.322 18.6758 143.967 18.6758C146.191 18.6758 147.764 17.3398 147.966 15.3711H146.138C145.919 16.4434 145.154 17.085 143.985 17.085C142.508 17.085 141.533 15.9072 141.533 13.877C141.533 11.8906 142.5 10.6689 143.967 10.6689C145.207 10.6689 145.945 11.4512 146.138 12.4355H147.949ZM153.538 10.6162C154.866 10.6162 155.762 11.6094 155.806 13.0244H151.183C151.28 11.627 152.211 10.6162 153.538 10.6162ZM155.797 15.7842C155.542 16.5928 154.743 17.1377 153.661 17.1377C152.141 17.1377 151.174 16.0742 151.174 14.4658V14.3516H157.704V13.7012C157.704 10.8975 156.105 9.08691 153.538 9.08691C150.928 9.08691 149.258 11.0205 149.258 13.9209C149.258 16.8389 150.902 18.6758 153.618 18.6758C155.736 18.6758 157.335 17.4717 157.599 15.7842H155.797Z" fill="#1B1F2D"/>
<path d="M32.9014 45V40.7549L36.4014 35.1357H35L32.3066 39.5654H32.2656L29.5723 35.1357H28.1709L31.6709 40.7549V45H32.9014ZM39.2722 45.123C41.2341 45.123 42.5603 43.708 42.5603 41.4453C42.5603 39.1758 41.2341 37.7676 39.2722 37.7676C37.3034 37.7676 35.9773 39.1758 35.9773 41.4453C35.9773 43.708 37.3034 45.123 39.2722 45.123ZM39.2722 44.0771C38.0144 44.0771 37.1872 43.1201 37.1872 41.4453C37.1872 39.7705 38.0144 38.8135 39.2722 38.8135C40.53 38.8135 41.3503 39.7705 41.3503 41.4453C41.3503 43.1201 40.53 44.0771 39.2722 44.0771ZM49.8813 37.8906H48.6918V42.0674C48.6918 43.2773 47.9946 44.0703 46.8393 44.0703C45.7387 44.0703 45.1987 43.4482 45.1987 42.293V37.8906H44.0092V42.5049C44.0092 44.1182 44.9184 45.123 46.4702 45.123C47.5639 45.123 48.3022 44.665 48.726 43.8447H48.7534V45H49.8813V37.8906ZM51.7062 45H52.8957V40.5703C52.8957 39.5654 53.4972 38.9023 54.4201 38.9023C54.7072 38.9023 54.9601 38.9365 55.0558 38.9707V37.8154C54.9601 37.8018 54.7824 37.7676 54.5773 37.7676C53.7433 37.7676 53.0871 38.2666 52.8546 39.0527H52.8273V37.8906H51.7062V45ZM59.4576 45H60.6471V40.8164C60.6471 39.6133 61.3785 38.8203 62.4996 38.8203C63.5934 38.8203 64.1334 39.4492 64.1334 40.5977V45H65.3229V40.3857C65.3229 38.7725 64.4205 37.7676 62.8619 37.7676C61.7613 37.7676 61.0025 38.2598 60.6061 39.0254H60.5787V37.8906H59.4576V45ZM69.971 38.7998C71.0921 38.7998 71.8372 39.6475 71.8646 40.8369H68.0023C68.0775 39.6543 68.8568 38.7998 69.971 38.7998ZM71.8372 42.9629C71.639 43.6328 70.9759 44.0908 70.0736 44.0908C68.7952 44.0908 67.9954 43.1953 67.9954 41.835V41.7666H73.095V41.3154C73.095 39.1621 71.9124 37.7676 69.9915 37.7676C68.0296 37.7676 66.7718 39.2646 66.7718 41.4727C66.7718 43.708 68.0091 45.123 70.0462 45.123C71.598 45.123 72.8011 44.207 73.0062 42.9629H71.8372ZM76.9571 42.293L78.6592 45H79.9786L77.6133 41.3975L80.0127 37.8906H78.6866L76.9981 40.5566H76.9707L75.2618 37.8906H73.9356L76.3145 41.4453L73.8946 45H75.2139L76.9297 42.293H76.9571ZM81.6804 36.1748V37.8906H80.6209V38.8682H81.6804V43.1543C81.6804 44.5215 82.1863 45.0547 83.492 45.0547C83.7722 45.0547 84.1004 45.0342 84.2439 45V44.002C84.1619 44.0156 83.8884 44.0361 83.7517 44.0361C83.1433 44.0361 82.8699 43.7422 82.8699 43.0928V38.8682H84.2507V37.8906H82.8699V36.1748H81.6804ZM91.8449 44.0088C90.6213 44.0088 89.8215 43.0107 89.8215 41.418C89.8215 39.8252 90.6213 38.8135 91.8449 38.8135C93.0822 38.8135 93.9094 39.8525 93.9094 41.418C93.9094 42.9834 93.0822 44.0088 91.8449 44.0088ZM91.8859 47.6797C93.8479 47.6797 95.0988 46.5518 95.0988 44.8564V37.8906H93.9641V39.0869H93.9436C93.4719 38.2598 92.6379 37.7676 91.633 37.7676C89.7941 37.7676 88.6047 39.1895 88.6047 41.418C88.6047 43.626 89.7941 45.0547 91.6057 45.0547C92.6037 45.0547 93.4445 44.5488 93.882 43.7764H93.9094V44.8975C93.9094 45.957 93.1643 46.668 91.9338 46.668C91.0451 46.668 90.341 46.2373 90.1086 45.5879H88.885C89.0832 46.7979 90.3205 47.6797 91.8859 47.6797ZM99.8769 45.123C101.839 45.123 103.165 43.708 103.165 41.4453C103.165 39.1758 101.839 37.7676 99.8769 37.7676C97.9081 37.7676 96.582 39.1758 96.582 41.4453C96.582 43.708 97.9081 45.123 99.8769 45.123ZM99.8769 44.0771C98.6191 44.0771 97.7919 43.1201 97.7919 41.4453C97.7919 39.7705 98.6191 38.8135 99.8769 38.8135C101.135 38.8135 101.955 39.7705 101.955 41.4453C101.955 43.1201 101.135 44.0771 99.8769 44.0771ZM105.031 36.1748V37.8906H103.971V38.8682H105.031V43.1543C105.031 44.5215 105.537 45.0547 106.842 45.0547C107.123 45.0547 107.451 45.0342 107.594 45V44.002C107.512 44.0156 107.239 44.0361 107.102 44.0361C106.494 44.0361 106.22 43.7422 106.22 43.0928V38.8682H107.601V37.8906H106.22V36.1748H105.031ZM111.894 45.123C113.856 45.123 115.182 43.708 115.182 41.4453C115.182 39.1758 113.856 37.7676 111.894 37.7676C109.925 37.7676 108.599 39.1758 108.599 41.4453C108.599 43.708 109.925 45.123 111.894 45.123ZM111.894 44.0771C110.636 44.0771 109.809 43.1201 109.809 41.4453C109.809 39.7705 110.636 38.8135 111.894 38.8135C113.152 38.8135 113.972 39.7705 113.972 41.4453C113.972 43.1201 113.152 44.0771 111.894 44.0771ZM125.722 40.2217C125.572 38.9434 124.512 37.7676 122.735 37.7676C120.773 37.7676 119.468 39.2031 119.468 41.4453C119.468 43.7354 120.78 45.123 122.749 45.123C124.362 45.123 125.552 44.125 125.736 42.71H124.567C124.362 43.5645 123.726 44.0771 122.756 44.0771C121.525 44.0771 120.678 43.0996 120.678 41.4453C120.678 39.832 121.512 38.8135 122.742 38.8135C123.788 38.8135 124.389 39.4492 124.56 40.2217H125.722ZM130.056 45.123C132.018 45.123 133.344 43.708 133.344 41.4453C133.344 39.1758 132.018 37.7676 130.056 37.7676C128.087 37.7676 126.761 39.1758 126.761 41.4453C126.761 43.708 128.087 45.123 130.056 45.123ZM130.056 44.0771C128.798 44.0771 127.971 43.1201 127.971 41.4453C127.971 39.7705 128.798 38.8135 130.056 38.8135C131.314 38.8135 132.134 39.7705 132.134 41.4453C132.134 43.1201 131.314 44.0771 130.056 44.0771ZM134.827 45H136.017V40.543C136.017 39.5586 136.7 38.8203 137.644 38.8203C138.526 38.8203 139.1 39.3809 139.1 40.2354V45H140.289V40.4814C140.289 39.5176 140.952 38.8203 141.896 38.8203C142.832 38.8203 143.372 39.3945 143.372 40.3652V45H144.562V40.0918C144.562 38.6836 143.653 37.7676 142.244 37.7676C141.246 37.7676 140.412 38.2734 140.016 39.1211H139.989C139.681 38.2598 138.963 37.7676 137.992 37.7676C137.035 37.7676 136.311 38.2734 135.976 39.0254H135.948V37.8906H134.827V45ZM149.811 37.7676C148.779 37.7676 147.952 38.2939 147.515 39.0938H147.487V37.8906H146.359V47.3721H147.549V43.8447H147.576C148 44.624 148.82 45.123 149.839 45.123C151.63 45.123 152.853 43.6738 152.853 41.4453C152.853 39.2168 151.623 37.7676 149.811 37.7676ZM149.579 44.0771C148.362 44.0771 147.542 43.0312 147.542 41.4453C147.542 39.8662 148.362 38.8135 149.579 38.8135C150.844 38.8135 151.637 39.8389 151.637 41.4453C151.637 43.0586 150.844 44.0771 149.579 44.0771ZM156.681 44.1113C155.827 44.1113 155.259 43.667 155.259 42.9902C155.259 42.3203 155.806 41.8965 156.763 41.835L158.664 41.7188V42.2998C158.664 43.3252 157.802 44.1113 156.681 44.1113ZM156.415 45.123C157.372 45.123 158.274 44.5898 158.698 43.7764H158.725V45H159.853V40.085C159.853 38.6699 158.8 37.7676 157.132 37.7676C155.451 37.7676 154.398 38.7109 154.316 39.9414H155.465C155.615 39.2441 156.189 38.8135 157.105 38.8135C158.09 38.8135 158.664 39.333 158.664 40.2012V40.7959L156.627 40.9121C154.986 41.0078 154.049 41.7734 154.049 42.9902C154.049 44.2686 155 45.123 156.415 45.123ZM161.644 45H162.833V40.8164C162.833 39.6133 163.565 38.8203 164.686 38.8203C165.78 38.8203 166.32 39.4492 166.32 40.5977V45H167.509V40.3857C167.509 38.7725 166.607 37.7676 165.048 37.7676C163.948 37.7676 163.189 38.2598 162.792 39.0254H162.765V37.8906H161.644V45ZM169.368 45H170.558V37.8906H169.368V45ZM169.963 36.6943C170.373 36.6943 170.708 36.3594 170.708 35.9561C170.708 35.5459 170.373 35.2178 169.963 35.2178C169.56 35.2178 169.225 35.5459 169.225 35.9561C169.225 36.3594 169.56 36.6943 169.963 36.6943ZM175.39 45.123C177.352 45.123 178.679 43.708 178.679 41.4453C178.679 39.1758 177.352 37.7676 175.39 37.7676C173.422 37.7676 172.096 39.1758 172.096 41.4453C172.096 43.708 173.422 45.123 175.39 45.123ZM175.39 44.0771C174.133 44.0771 173.306 43.1201 173.306 41.4453C173.306 39.7705 174.133 38.8135 175.39 38.8135C176.648 38.8135 177.469 39.7705 177.469 41.4453C177.469 43.1201 176.648 44.0771 175.39 44.0771ZM180.162 45H181.351V40.8164C181.351 39.6133 182.083 38.8203 183.204 38.8203C184.297 38.8203 184.837 39.4492 184.837 40.5977V45H186.027V40.3857C186.027 38.7725 185.125 37.7676 183.566 37.7676C182.465 37.7676 181.707 38.2598 181.31 39.0254H181.283V37.8906H180.162V45ZM191.358 45H192.548V38.8682H193.997V37.8906H192.541V37.1045C192.541 36.4004 192.849 36.0586 193.491 36.0586C193.689 36.0586 193.888 36.0791 194.031 36.0996V35.1357C193.86 35.1084 193.573 35.0811 193.307 35.0811C191.994 35.0811 191.358 35.7305 191.358 37.0977V37.8906H190.367V38.8682H191.358V45ZM198.112 45.123C200.074 45.123 201.4 43.708 201.4 41.4453C201.4 39.1758 200.074 37.7676 198.112 37.7676C196.143 37.7676 194.817 39.1758 194.817 41.4453C194.817 43.708 196.143 45.123 198.112 45.123ZM198.112 44.0771C196.854 44.0771 196.027 43.1201 196.027 41.4453C196.027 39.7705 196.854 38.8135 198.112 38.8135C199.37 38.8135 200.19 39.7705 200.19 41.4453C200.19 43.1201 199.37 44.0771 198.112 44.0771ZM202.883 45H204.073V40.5703C204.073 39.5654 204.674 38.9023 205.597 38.9023C205.884 38.9023 206.137 38.9365 206.233 38.9707V37.8154C206.137 37.8018 205.959 37.7676 205.754 37.7676C204.92 37.7676 204.264 38.2666 204.032 39.0527H204.004V37.8906H202.883V45ZM29.1553 56.1748V57.8906H28.0957V58.8682H29.1553V63.1543C29.1553 64.5215 29.6611 65.0547 30.9668 65.0547C31.2471 65.0547 31.5752 65.0342 31.7188 65V64.002C31.6367 64.0156 31.3633 64.0361 31.2266 64.0361C30.6182 64.0361 30.3447 63.7422 30.3447 63.0928V58.8682H31.7256V57.8906H30.3447V56.1748H29.1553ZM33.2771 65H34.4665V60.5703C34.4665 59.5654 35.0681 58.9023 35.9909 58.9023C36.278 58.9023 36.531 58.9365 36.6267 58.9707V57.8154C36.531 57.8018 36.3532 57.7676 36.1482 57.7676C35.3142 57.7676 34.6579 58.2666 34.4255 59.0527H34.3982V57.8906H33.2771V65ZM40.0854 64.1113C39.2309 64.1113 38.6635 63.667 38.6635 62.9902C38.6635 62.3203 39.2104 61.8965 40.1674 61.835L42.0678 61.7188V62.2998C42.0678 63.3252 41.2065 64.1113 40.0854 64.1113ZM39.8188 65.123C40.7758 65.123 41.6782 64.5898 42.102 63.7764H42.1293V65H43.2573V60.085C43.2573 58.6699 42.2045 57.7676 40.5366 57.7676C38.8549 57.7676 37.8022 58.7109 37.7202 59.9414H38.8686C39.019 59.2441 39.5932 58.8135 40.5092 58.8135C41.4936 58.8135 42.0678 59.333 42.0678 60.2012V60.7959L40.0307 60.9121C38.3901 61.0078 37.4536 61.7734 37.4536 62.9902C37.4536 64.2686 38.4038 65.123 39.8188 65.123ZM50.8791 57.8906H49.6418L47.673 63.7354H47.6457L45.6838 57.8906H44.4328L47.0509 65H48.2677L50.8791 57.8906ZM54.7411 58.7998C55.8622 58.7998 56.6073 59.6475 56.6346 60.8369H52.7723C52.8475 59.6543 53.6268 58.7998 54.7411 58.7998ZM56.6073 62.9629C56.4091 63.6328 55.746 64.0908 54.8436 64.0908C53.5653 64.0908 52.7655 63.1953 52.7655 61.835V61.7666H57.8651V61.3154C57.8651 59.1621 56.6825 57.7676 54.7616 57.7676C52.7997 57.7676 51.5419 59.2646 51.5419 61.4727C51.5419 63.708 52.7792 65.123 54.8163 65.123C56.368 65.123 57.5712 64.207 57.7763 62.9629H56.6073ZM59.4098 65H60.5992V55.1357H59.4098V65Z" fill="#4F4F4F"/>
</svg>
