<svg width="28" height="28" viewBox="0 0 28 28" fill="none" xmlns="http://www.w3.org/2000/svg">
<path d="M21.5835 4.79496L15.7618 2.61329C14.7935 2.25162 13.2068 2.25162 12.2385 2.61329L6.41685 4.79496C5.07518 5.29662 3.97852 6.88329 3.97852 8.30662V16.975C3.97852 18.3516 4.88852 20.16 5.99685 20.9883L11.0135 24.7333C12.6585 25.97 15.3652 25.97 17.0102 24.7333L22.0268 20.9883C23.1352 20.16 24.0452 18.3516 24.0452 16.975V8.30662C24.0218 6.88329 22.9252 5.29662 21.5835 4.79496ZM13.9185 8.20162C15.2952 8.20162 16.4152 9.32162 16.4152 10.6983C16.4152 12.0516 15.3535 13.1366 14.0118 13.1833H13.8952C12.4952 13.1366 11.4452 12.0516 11.4452 10.6983C11.4335 9.32162 12.5535 8.20162 13.9185 8.20162ZM16.5552 19.0866C15.8435 19.5533 14.9218 19.7983 14.0002 19.7983C13.0785 19.7983 12.1452 19.565 11.4452 19.0866C10.7802 18.6433 10.4185 18.0366 10.4068 17.3716C10.4068 16.7183 10.7802 16.0883 11.4452 15.645C12.8568 14.7116 15.1552 14.7116 16.5668 15.645C17.2318 16.0883 17.6052 16.695 17.6052 17.36C17.5935 18.0133 17.2202 18.6433 16.5552 19.0866Z" fill="white"/>
</svg>
