<svg width="19" height="20" viewBox="0 0 19 20" fill="none" xmlns="http://www.w3.org/2000/svg">
<path d="M1.414 10.7779C0.5 10.9999 0 12.1919 0 12.1919C0 12.1919 3.398 12.6259 4.949 14.3129C6.5 15.9999 7.071 19.2629 7.071 19.2629C7.071 19.2629 8.47 19.6979 8.485 17.8489C8.5 15.9999 7.778 14.3129 7.778 14.3129L11.091 10.9999L14.701 18.7039C14.701 18.7039 16.08 19.2299 16.04 17.3649C16 15.4999 14.85 7.24194 14.85 7.24194L17.678 4.41294C17.869 4.22845 18.0214 4.00776 18.1262 3.76375C18.231 3.51974 18.2862 3.2573 18.2885 2.99174C18.2908 2.72619 18.2402 2.46283 18.1396 2.21703C18.0391 1.97124 17.8906 1.74794 17.7028 1.56015C17.515 1.37237 17.2917 1.22386 17.0459 1.1233C16.8001 1.02274 16.5368 0.972133 16.2712 0.974441C16.0056 0.976748 15.7432 1.03192 15.4992 1.13674C15.2552 1.24156 15.0345 1.39392 14.85 1.58494L11.947 4.48794C11.947 4.48794 4.148 3.09394 1.824 3.29694C-0.5 3.49994 0.559 4.56294 0.559 4.56294L8.203 8.23294L4.95 11.4859C4.95 11.4859 2.328 10.5559 1.414 10.7779Z" fill="#2F80ED"/>
</svg>
