<svg width="179" height="106" viewBox="0 0 179 106" fill="none" xmlns="http://www.w3.org/2000/svg">
<path d="M0.996094 6.17578V6.23438H4.27734V6.17578C4.27734 4.61719 5.48438 3.46875 7.125 3.46875C8.69531 3.46875 9.80859 4.47656 9.80859 5.74219C9.80859 6.91406 9.28125 7.76953 7.57031 9.48047L1.19531 15.6211V18H13.4883V15.1875H5.85938V15.1172L9.98438 11.1445C11.8477 9.29297 13.2539 7.71094 13.2539 5.60156C13.2539 2.77734 10.8047 0.714844 7.24219 0.714844C3.55078 0.714844 0.996094 2.97656 0.996094 6.17578ZM22.2305 18.375C26.4844 18.375 29.0625 14.9648 29.0625 9.50391C29.0625 4.04297 26.4609 0.703125 22.2305 0.703125C18 0.703125 15.3867 4.05469 15.3867 9.51562C15.3867 14.9883 17.9766 18.375 22.2305 18.375ZM22.2305 15.5391C20.2148 15.5391 18.9844 13.3594 18.9844 9.51562C18.9844 5.70703 20.2383 3.53906 22.2305 3.53906C24.2344 3.53906 25.4648 5.69531 25.4648 9.51562C25.4648 13.3711 24.2461 15.5391 22.2305 15.5391ZM38.2852 5.14453C38.2852 2.46094 36.7969 0.761719 34.4297 0.761719C32.0742 0.761719 30.5742 2.46094 30.5742 5.14453C30.5742 7.83984 32.0742 9.52734 34.4297 9.52734C36.7969 9.52734 38.2852 7.83984 38.2852 5.14453ZM34.4297 7.45312C33.668 7.45312 33.1992 6.58594 33.1992 5.13281C33.1992 3.67969 33.668 2.80078 34.4297 2.80078C35.1914 2.80078 35.6602 3.67969 35.6602 5.13281C35.6602 6.58594 35.1914 7.45312 34.4297 7.45312ZM35.0859 18L41.0391 9.83203L47.4141 1.08984H44.5898L38.8125 9.01172L32.25 18H35.0859ZM49.0898 13.8516C49.0898 11.168 47.6016 9.46875 45.2344 9.46875C42.8789 9.46875 41.3789 11.168 41.3789 13.8516C41.3789 16.5469 42.8789 18.2461 45.2344 18.2461C47.6016 18.2461 49.0898 16.5469 49.0898 13.8516ZM45.2344 16.1602C44.4727 16.1602 44.0039 15.293 44.0039 13.8398C44.0039 12.3867 44.4727 11.5078 45.2344 11.5078C45.9961 11.5078 46.4648 12.3867 46.4648 13.8398C46.4648 15.293 45.9961 16.1602 45.2344 16.1602ZM61.2539 18.2695C65.0508 18.2695 67.4766 15.8438 67.4766 11.707C67.4766 7.62891 65.0156 5.16797 61.2539 5.16797C57.4922 5.16797 55.0312 7.64062 55.0312 11.707C55.0312 15.832 57.457 18.2695 61.2539 18.2695ZM61.2539 15.6562C59.5664 15.6562 58.5 14.2383 58.5 11.7188C58.5 9.22266 59.5898 7.78125 61.2539 7.78125C62.918 7.78125 63.9961 9.22266 63.9961 11.7188C63.9961 14.2383 62.9297 15.6562 61.2539 15.6562ZM70.1602 18H73.582V8.01562H75.9961V5.49609H73.5V4.66406C73.5 3.77344 73.9922 3.28125 75.1172 3.28125C75.457 3.28125 75.7969 3.30469 76.043 3.35156V1.08984C75.6445 1.00781 74.9297 0.9375 74.2969 0.9375C71.3203 0.9375 70.1602 2.08594 70.1602 4.54688V5.49609H68.4492V8.01562H70.1602V18ZM78.7148 18H82.1367V8.01562H84.5508V5.49609H82.0547V4.66406C82.0547 3.77344 82.5469 3.28125 83.6719 3.28125C84.0117 3.28125 84.3516 3.30469 84.5977 3.35156V1.08984C84.1992 1.00781 83.4844 0.9375 82.8516 0.9375C79.875 0.9375 78.7148 2.08594 78.7148 4.54688V5.49609H77.0039V8.01562H78.7148V18ZM4.94531 30.0898H1.40625V41.0234C1.40625 44.75 4.16016 47.293 8.49609 47.293C12.8203 47.293 15.5742 44.75 15.5742 41.0234V30.0898H12.0352V40.6719C12.0352 42.8398 10.7578 44.2578 8.49609 44.2578C6.22266 44.2578 4.94531 42.8398 4.94531 40.6719V30.0898ZM17.8945 38.1289C17.8945 39.9805 19.1133 41.2227 21.4922 41.7617L23.8125 42.2773C24.9375 42.5469 25.3594 42.8984 25.3594 43.5312C25.3594 44.3516 24.5742 44.8672 23.2734 44.8672C21.9141 44.8672 21.082 44.2578 20.918 43.2031H17.5781C17.7656 45.6523 19.8281 47.2695 23.1797 47.2695C26.4961 47.2695 28.7695 45.6406 28.7695 43.168C28.7695 41.293 27.75 40.2969 25.2305 39.7344L22.8281 39.2188C21.7266 38.9609 21.1875 38.5391 21.1875 37.918C21.1875 37.1094 21.9609 36.5703 23.1445 36.5703C24.4102 36.5703 25.2188 37.1914 25.2891 38.1992H28.4414C28.3945 35.7617 26.3438 34.168 23.1914 34.168C19.9688 34.168 17.8945 35.7383 17.8945 38.1289ZM36.1172 36.6992C37.6406 36.6992 38.6836 37.8008 38.7539 39.4062H33.4219C33.5391 37.8359 34.6172 36.6992 36.1172 36.6992ZM38.8008 43.1562C38.4844 44.1172 37.5234 44.7383 36.2695 44.7383C34.5234 44.7383 33.3867 43.5078 33.3867 41.7148V41.5039H42.0469V40.4609C42.0469 36.6406 39.7383 34.168 36.082 34.168C32.3672 34.168 30.0234 36.7695 30.0234 40.7773C30.0234 44.7969 32.3438 47.2695 36.2109 47.2695C39.3164 47.2695 41.5664 45.6172 41.9414 43.1562H38.8008ZM48.8672 30.0898V47H52.4062V41.668H55.5703C59.1328 41.668 61.6055 39.3477 61.6055 35.8789C61.6055 32.3984 59.2148 30.0898 55.7461 30.0898H48.8672ZM52.4062 32.8906H54.8086C56.8359 32.8906 58.0078 33.9688 58.0078 35.8906C58.0078 37.8242 56.8242 38.9023 54.7969 38.9023H52.4062V32.8906ZM63.4102 47H66.832V39.9805C66.832 38.2109 67.8164 37.1797 69.5039 37.1797C69.9961 37.1797 70.4648 37.2617 70.7461 37.3789V34.3672C70.5117 34.2969 70.1719 34.2383 69.7734 34.2383C68.2969 34.2383 67.2305 35.1055 66.7852 36.6992H66.7148V34.4375H63.4102V47ZM77.4961 47.2695C81.293 47.2695 83.7188 44.8438 83.7188 40.707C83.7188 36.6289 81.2578 34.168 77.4961 34.168C73.7344 34.168 71.2734 36.6406 71.2734 40.707C71.2734 44.832 73.6992 47.2695 77.4961 47.2695ZM77.4961 44.6562C75.8086 44.6562 74.7422 43.2383 74.7422 40.7188C74.7422 38.2227 75.832 36.7812 77.4961 36.7812C79.1602 36.7812 80.2383 38.2227 80.2383 40.7188C80.2383 43.2383 79.1719 44.6562 77.4961 44.6562ZM85.4883 47H88.9102V39.418C88.9102 38.0117 89.7891 37.0273 91.0898 37.0273C92.3555 37.0273 93.1172 37.8242 93.1172 39.1719V47H96.4102V39.3711C96.4102 37.9766 97.2656 37.0273 98.5664 37.0273C99.8906 37.0273 100.617 37.8242 100.617 39.2773V47H104.039V38.4219C104.039 35.8906 102.387 34.2031 99.9258 34.2031C98.0859 34.2031 96.5859 35.1992 96.0234 36.7812H95.9531C95.5312 35.1406 94.2656 34.2031 92.4492 34.2031C90.7383 34.2031 89.3906 35.1992 88.8633 36.7109H88.793V34.4375H85.4883V47ZM111.973 47.2695C115.77 47.2695 118.195 44.8438 118.195 40.707C118.195 36.6289 115.734 34.168 111.973 34.168C108.211 34.168 105.75 36.6406 105.75 40.707C105.75 44.832 108.176 47.2695 111.973 47.2695ZM111.973 44.6562C110.285 44.6562 109.219 43.2383 109.219 40.7188C109.219 38.2227 110.309 36.7812 111.973 36.7812C113.637 36.7812 114.715 38.2227 114.715 40.7188C114.715 43.2383 113.648 44.6562 111.973 44.6562ZM120.879 31.543V34.4375H119.109V37.0156H120.879V43.6133C120.879 46.0625 122.027 47.0469 124.98 47.0469C125.672 47.0469 126.258 46.9883 126.609 46.9062V44.3867C126.398 44.4219 126.082 44.4453 125.777 44.4453C124.77 44.4453 124.301 43.9883 124.301 43.0273V37.0156H126.621V34.4375H124.301V31.543H120.879ZM128.555 47H131.977V34.4375H128.555V47ZM130.266 33.0547C131.297 33.0547 132.094 32.2695 132.094 31.2852C132.094 30.2891 131.297 29.5156 130.266 29.5156C129.234 29.5156 128.438 30.2891 128.438 31.2852C128.438 32.2695 129.234 33.0547 130.266 33.0547ZM140.027 47.2695C143.824 47.2695 146.25 44.8438 146.25 40.707C146.25 36.6289 143.789 34.168 140.027 34.168C136.266 34.168 133.805 36.6406 133.805 40.707C133.805 44.832 136.23 47.2695 140.027 47.2695ZM140.027 44.6562C138.34 44.6562 137.273 43.2383 137.273 40.7188C137.273 38.2227 138.363 36.7812 140.027 36.7812C141.691 36.7812 142.77 38.2227 142.77 40.7188C142.77 43.2383 141.703 44.6562 140.027 44.6562ZM148.02 47H151.441V39.793C151.441 38.1641 152.414 37.0391 153.949 37.0391C155.484 37.0391 156.258 37.9766 156.258 39.6172V47H159.68V38.9023C159.68 35.9609 158.109 34.2031 155.32 34.2031C153.387 34.2031 152.062 35.1172 151.395 36.6758H151.324V34.4375H148.02V47ZM166.699 44.7266C165.539 44.7266 164.766 44.1406 164.766 43.2031C164.766 42.3125 165.492 41.7383 166.77 41.6445L169.418 41.4805V42.3945C169.418 43.7539 168.188 44.7266 166.699 44.7266ZM165.574 47.1992C167.145 47.1992 168.703 46.4141 169.406 45.0781H169.477V47H172.781V38.3633C172.781 35.832 170.684 34.168 167.461 34.168C164.133 34.168 162.059 35.8438 161.93 38.2812H165.059C165.223 37.3555 166.031 36.7227 167.309 36.7227C168.598 36.7227 169.418 37.4023 169.418 38.5742V39.4062L166.254 39.5938C163.125 39.7812 161.367 41.1055 161.367 43.3906C161.367 45.6523 163.184 47.1992 165.574 47.1992ZM175.078 47H178.5V30.0898H175.078V47ZM8.88281 76.293C13.0312 76.293 15.9258 73.9023 16.3242 70.1289H12.8789C12.5039 72.1328 10.9922 73.3633 8.89453 73.3633C6.1875 73.3633 4.48828 71.1367 4.48828 67.5273C4.48828 63.9648 6.21094 61.7266 8.88281 61.7266C10.9453 61.7266 12.5391 63.0859 12.8672 65.1602H16.3125C16.043 61.375 12.9492 58.7969 8.88281 58.7969C3.98438 58.7969 0.878906 62.0898 0.878906 67.5391C0.878906 73 3.96094 76.293 8.88281 76.293ZM23.9883 76.2695C27.7852 76.2695 30.2109 73.8438 30.2109 69.707C30.2109 65.6289 27.75 63.168 23.9883 63.168C20.2266 63.168 17.7656 65.6406 17.7656 69.707C17.7656 73.832 20.1914 76.2695 23.9883 76.2695ZM23.9883 73.6562C22.3008 73.6562 21.2344 72.2383 21.2344 69.7188C21.2344 67.2227 22.3242 65.7812 23.9883 65.7812C25.6523 65.7812 26.7305 67.2227 26.7305 69.7188C26.7305 72.2383 25.6641 73.6562 23.9883 73.6562ZM43.582 63.4375H40.1602V70.6328C40.1602 72.2969 39.2109 73.3867 37.6875 73.3867C36.1758 73.3867 35.3438 72.4961 35.3438 70.8203V63.4375H31.9219V71.5352C31.9219 74.4648 33.7266 76.2344 36.4453 76.2344C38.3438 76.2344 39.5859 75.3203 40.207 73.7383H40.2773V76H43.582V63.4375ZM53.1445 63.2383C51.3281 63.2383 49.9336 64.1523 49.2539 65.6289H49.1836V63.4375H45.8086V80.1016H49.2305V73.8906H49.3008C49.9688 75.3086 51.375 76.1992 53.2031 76.1992C56.3438 76.1992 58.2891 73.7617 58.2891 69.7188C58.2891 65.6641 56.332 63.2383 53.1445 63.2383ZM51.9961 73.4453C50.3203 73.4453 49.2188 71.9922 49.2188 69.7188C49.2188 67.4688 50.3203 65.9805 51.9961 65.9805C53.707 65.9805 54.7852 67.4453 54.7852 69.7188C54.7852 72.0039 53.707 73.4453 51.9961 73.4453ZM65.8242 76.2695C69.6211 76.2695 72.0469 73.8438 72.0469 69.707C72.0469 65.6289 69.5859 63.168 65.8242 63.168C62.0625 63.168 59.6016 65.6406 59.6016 69.707C59.6016 73.832 62.0273 76.2695 65.8242 76.2695ZM65.8242 73.6562C64.1367 73.6562 63.0703 72.2383 63.0703 69.7188C63.0703 67.2227 64.1602 65.7812 65.8242 65.7812C67.4883 65.7812 68.5664 67.2227 68.5664 69.7188C68.5664 72.2383 67.5 73.6562 65.8242 73.6562ZM73.8164 76H77.2383V68.793C77.2383 67.1641 78.2109 66.0391 79.7461 66.0391C81.2812 66.0391 82.0547 66.9766 82.0547 68.6172V76H85.4766V67.9023C85.4766 64.9609 83.9062 63.2031 81.1172 63.2031C79.1836 63.2031 77.8594 64.1172 77.1914 65.6758H77.1211V63.4375H73.8164V76ZM100.172 76.293C104.32 76.293 107.215 73.9023 107.613 70.1289H104.168C103.793 72.1328 102.281 73.3633 100.184 73.3633C97.4766 73.3633 95.7773 71.1367 95.7773 67.5273C95.7773 63.9648 97.5 61.7266 100.172 61.7266C102.234 61.7266 103.828 63.0859 104.156 65.1602H107.602C107.332 61.375 104.238 58.7969 100.172 58.7969C95.2734 58.7969 92.168 62.0898 92.168 67.5391C92.168 73 95.25 76.293 100.172 76.293ZM115.277 76.2695C119.074 76.2695 121.5 73.8438 121.5 69.707C121.5 65.6289 119.039 63.168 115.277 63.168C111.516 63.168 109.055 65.6406 109.055 69.707C109.055 73.832 111.48 76.2695 115.277 76.2695ZM115.277 73.6562C113.59 73.6562 112.523 72.2383 112.523 69.7188C112.523 67.2227 113.613 65.7812 115.277 65.7812C116.941 65.7812 118.02 67.2227 118.02 69.7188C118.02 72.2383 116.953 73.6562 115.277 73.6562ZM127.934 76.1992C129.785 76.1992 131.238 75.2266 131.848 73.8438H131.906V76H135.281V59.0898H131.859V65.5938H131.789C131.18 64.1992 129.773 63.2383 127.957 63.2383C124.805 63.2383 122.812 65.7109 122.812 69.6953C122.812 73.7148 124.793 76.1992 127.934 76.1992ZM129.094 65.9805C130.793 65.9805 131.883 67.4336 131.883 69.7188C131.883 72.0156 130.793 73.4453 129.094 73.4453C127.371 73.4453 126.316 72.0273 126.316 69.7188C126.316 67.4219 127.371 65.9805 129.094 65.9805ZM143.203 65.6992C144.727 65.6992 145.77 66.8008 145.84 68.4062H140.508C140.625 66.8359 141.703 65.6992 143.203 65.6992ZM145.887 72.1562C145.57 73.1172 144.609 73.7383 143.355 73.7383C141.609 73.7383 140.473 72.5078 140.473 70.7148V70.5039H149.133V69.4609C149.133 65.6406 146.824 63.168 143.168 63.168C139.453 63.168 137.109 65.7695 137.109 69.7773C137.109 73.7969 139.43 76.2695 143.297 76.2695C146.402 76.2695 148.652 74.6172 149.027 72.1562H145.887ZM153.129 76.1406C154.172 76.1406 155.016 75.2969 155.016 74.2539C155.016 73.1992 154.172 72.3672 153.129 72.3672C152.074 72.3672 151.242 73.1992 151.242 74.2539C151.242 75.2969 152.074 76.1406 153.129 76.1406ZM153.129 67.7617C154.172 67.7617 155.016 66.918 155.016 65.875C155.016 64.8203 154.172 63.9883 153.129 63.9883C152.074 63.9883 151.242 64.8203 151.242 65.875C151.242 66.918 152.074 67.7617 153.129 67.7617Z" fill="white"/>
<path d="M9.03516 87.7969C4.01953 87.7969 0.878906 91.1602 0.878906 96.5508C0.878906 101.93 4.01953 105.293 9.03516 105.293C14.0391 105.293 17.1914 101.93 17.1914 96.5508C17.1914 91.1602 14.0391 87.7969 9.03516 87.7969ZM9.03516 90.75C11.8008 90.75 13.5703 93 13.5703 96.5508C13.5703 100.09 11.8008 102.328 9.03516 102.328C6.25781 102.328 4.48828 100.09 4.48828 96.5508C4.48828 93 6.26953 90.75 9.03516 90.75ZM19.1836 105H22.6055V97.9805C22.6055 96.2109 23.5898 95.1797 25.2773 95.1797C25.7695 95.1797 26.2383 95.2617 26.5195 95.3789V92.3672C26.2852 92.2969 25.9453 92.2383 25.5469 92.2383C24.0703 92.2383 23.0039 93.1055 22.5586 94.6992H22.4883V92.4375H19.1836V105ZM28.0078 105H31.4297V88.0898H28.0078V105ZM38.5898 102.727C37.4297 102.727 36.6562 102.141 36.6562 101.203C36.6562 100.312 37.3828 99.7383 38.6602 99.6445L41.3086 99.4805V100.395C41.3086 101.754 40.0781 102.727 38.5898 102.727ZM37.4648 105.199C39.0352 105.199 40.5938 104.414 41.2969 103.078H41.3672V105H44.6719V96.3633C44.6719 93.832 42.5742 92.168 39.3516 92.168C36.0234 92.168 33.9492 93.8438 33.8203 96.2812H36.9492C37.1133 95.3555 37.9219 94.7227 39.1992 94.7227C40.4883 94.7227 41.3086 95.4023 41.3086 96.5742V97.4062L38.1445 97.5938C35.0156 97.7812 33.2578 99.1055 33.2578 101.391C33.2578 103.652 35.0742 105.199 37.4648 105.199ZM46.8867 105H50.3086V97.793C50.3086 96.1641 51.2812 95.0391 52.8164 95.0391C54.3516 95.0391 55.125 95.9766 55.125 97.6172V105H58.5469V96.9023C58.5469 93.9609 56.9766 92.2031 54.1875 92.2031C52.2539 92.2031 50.9297 93.1172 50.2617 94.6758H50.1914V92.4375H46.8867V105ZM65.3789 105.199C67.2305 105.199 68.6836 104.227 69.293 102.844H69.3516V105H72.7266V88.0898H69.3047V94.5938H69.2344C68.625 93.1992 67.2188 92.2383 65.4023 92.2383C62.25 92.2383 60.2578 94.7109 60.2578 98.6953C60.2578 102.715 62.2383 105.199 65.3789 105.199ZM66.5391 94.9805C68.2383 94.9805 69.3281 96.4336 69.3281 98.7188C69.3281 101.016 68.2383 102.445 66.5391 102.445C64.8164 102.445 63.7617 101.027 63.7617 98.7188C63.7617 96.4219 64.8164 94.9805 66.5391 94.9805ZM80.7773 105.27C84.5742 105.27 87 102.844 87 98.707C87 94.6289 84.5391 92.168 80.7773 92.168C77.0156 92.168 74.5547 94.6406 74.5547 98.707C74.5547 102.832 76.9805 105.27 80.7773 105.27ZM80.7773 102.656C79.0898 102.656 78.0234 101.238 78.0234 98.7188C78.0234 96.2227 79.1133 94.7812 80.7773 94.7812C82.4414 94.7812 83.5195 96.2227 83.5195 98.7188C83.5195 101.238 82.4531 102.656 80.7773 102.656Z" fill="#FFD723"/>
</svg>
