<svg width="159" height="24" viewBox="0 0 159 24" fill="none" xmlns="http://www.w3.org/2000/svg">
<path d="M3.414 13.7779C2.5 13.9999 2 15.1919 2 15.1919C2 15.1919 5.398 15.6259 6.949 17.3129C8.5 18.9999 9.071 22.2629 9.071 22.2629C9.071 22.2629 10.47 22.6979 10.485 20.8489C10.5 18.9999 9.778 17.3129 9.778 17.3129L13.091 13.9999L16.701 21.7039C16.701 21.7039 18.08 22.2299 18.04 20.3649C18 18.4999 16.85 10.2419 16.85 10.2419L19.678 7.41294C19.869 7.22845 20.0214 7.00776 20.1262 6.76375C20.231 6.51974 20.2862 6.2573 20.2885 5.99174C20.2908 5.72619 20.2402 5.46283 20.1396 5.21703C20.0391 4.97124 19.8906 4.74794 19.7028 4.56015C19.515 4.37237 19.2917 4.22386 19.0459 4.1233C18.8001 4.02274 18.5368 3.97213 18.2712 3.97444C18.0056 3.97675 17.7432 4.03192 17.4992 4.13674C17.2552 4.24156 17.0345 4.39392 16.85 4.58494L13.947 7.48794C13.947 7.48794 6.148 6.09394 3.824 6.29694C1.5 6.49994 2.559 7.56294 2.559 7.56294L10.203 11.2329L6.95 14.4859C6.95 14.4859 4.328 13.5559 3.414 13.7779Z" fill="white"/>
<path d="M28.9404 18.5H30.8389V12.7871C30.8389 11.6006 31.6387 10.7217 32.7637 10.7217C33.8359 10.7217 34.5127 11.3984 34.5127 12.4619V18.5H36.376V12.7256C36.376 11.5566 37.1582 10.7217 38.2832 10.7217C39.4082 10.7217 40.0498 11.4072 40.0498 12.6025V18.5H41.957V12.1455C41.957 10.3086 40.7617 9.0957 38.9336 9.0957C37.6152 9.0957 36.5254 9.78125 36.0508 10.9062H36.0068C35.6377 9.75488 34.7061 9.0957 33.4229 9.0957C32.1748 9.0957 31.208 9.78125 30.7949 10.8096H30.751V9.25391H28.9404V18.5ZM45.068 21.9453C46.9928 21.9453 47.8981 21.2246 48.6891 18.9834L52.1608 9.25391H50.1569L47.8102 16.7773H47.7838L45.4371 9.25391H43.3805L46.7204 18.5088C46.7204 18.5176 46.5534 19.0625 46.5534 19.0801C46.2633 20.0293 45.7975 20.3984 44.9098 20.3984C44.7516 20.3984 44.4352 20.3984 44.2946 20.3633V21.9014C44.4352 21.9277 44.9186 21.9453 45.068 21.9453ZM57.8818 5.81738V18.5H62.3554C66.1347 18.5 68.3583 16.1445 68.3583 12.1367C68.3583 8.1377 66.1259 5.81738 62.3554 5.81738H57.8818ZM59.8505 7.51367H62.1708C64.8515 7.51367 66.3456 9.16602 66.3456 12.1543C66.3456 15.1514 64.8603 16.7949 62.1708 16.7949H59.8505V7.51367ZM70.3707 18.5H72.2691V12.9629C72.2691 11.6533 73.025 10.8359 74.2466 10.8359C74.6158 10.8359 74.9498 10.8799 75.0992 10.9414V9.1748C74.9586 9.14844 74.7212 9.10449 74.4488 9.10449C73.3589 9.10449 72.5328 9.74609 72.2252 10.8271H72.1812V9.25391H70.3707V18.5ZM80.0998 10.6162C81.427 10.6162 82.3234 11.6094 82.3674 13.0244H77.7443C77.841 11.627 78.7727 10.6162 80.0998 10.6162ZM82.3586 15.7842C82.1037 16.5928 81.3039 17.1377 80.2229 17.1377C78.7023 17.1377 77.7355 16.0742 77.7355 14.4658V14.3516H84.2658V13.7012C84.2658 10.8975 82.6662 9.08691 80.0998 9.08691C77.4895 9.08691 75.8195 11.0205 75.8195 13.9209C75.8195 16.8389 77.4631 18.6758 80.1789 18.6758C82.2971 18.6758 83.8967 17.4717 84.1604 15.7842H82.3586ZM89.3368 17.1553C88.3172 17.1553 87.6493 16.6279 87.6493 15.8193C87.6493 15.0283 88.2909 14.5273 89.4246 14.4482L91.701 14.3076V15.0371C91.701 16.2412 90.6639 17.1553 89.3368 17.1553ZM88.8094 18.6582C90.0223 18.6582 91.1912 18.0078 91.7274 16.9795H91.7713V18.5H93.5907V12.1279C93.5907 10.2734 92.158 9.08691 89.9168 9.08691C87.6317 9.08691 86.2079 10.3174 86.1024 11.9873H87.8954C88.0623 11.1611 88.7479 10.6338 89.8465 10.6338C91.0067 10.6338 91.701 11.249 91.701 12.2773V12.9893L89.1698 13.1387C86.9725 13.2617 85.7332 14.2549 85.7332 15.8721C85.7332 17.5332 86.9989 18.6582 88.8094 18.6582ZM95.7964 18.5H97.6948V12.7871C97.6948 11.6006 98.4946 10.7217 99.6196 10.7217C100.692 10.7217 101.369 11.3984 101.369 12.4619V18.5H103.232V12.7256C103.232 11.5566 104.014 10.7217 105.139 10.7217C106.264 10.7217 106.906 11.4072 106.906 12.6025V18.5H108.813V12.1455C108.813 10.3086 107.618 9.0957 105.79 9.0957C104.471 9.0957 103.381 9.78125 102.907 10.9062H102.863C102.494 9.75488 101.562 9.0957 100.279 9.0957C99.0307 9.0957 98.0639 9.78125 97.6509 10.8096H97.6069V9.25391H95.7964V18.5ZM115.255 5.81738V18.5H117.223V14.167H119.948C122.435 14.167 124.184 12.4619 124.184 9.9834C124.184 7.51367 122.47 5.81738 120.01 5.81738H115.255ZM117.223 7.47852H119.491C121.196 7.47852 122.172 8.39258 122.172 9.99219C122.172 11.5918 121.196 12.5146 119.482 12.5146H117.223V7.47852ZM126.109 18.5H128.007V5.81738H126.109V18.5ZM133.553 17.1553C132.533 17.1553 131.865 16.6279 131.865 15.8193C131.865 15.0283 132.507 14.5273 133.641 14.4482L135.917 14.3076V15.0371C135.917 16.2412 134.88 17.1553 133.553 17.1553ZM133.025 18.6582C134.238 18.6582 135.407 18.0078 135.943 16.9795H135.987V18.5H137.807V12.1279C137.807 10.2734 136.374 9.08691 134.133 9.08691C131.848 9.08691 130.424 10.3174 130.318 11.9873H132.111C132.278 11.1611 132.964 10.6338 134.063 10.6338C135.223 10.6338 135.917 11.249 135.917 12.2773V12.9893L133.386 13.1387C131.189 13.2617 129.949 14.2549 129.949 15.8721C129.949 17.5332 131.215 18.6582 133.025 18.6582ZM147.949 12.4355C147.782 10.6162 146.332 9.08691 143.95 9.08691C141.322 9.08691 139.599 10.9414 139.599 13.877C139.599 16.8652 141.322 18.6758 143.967 18.6758C146.191 18.6758 147.764 17.3398 147.966 15.3711H146.138C145.919 16.4434 145.154 17.085 143.985 17.085C142.508 17.085 141.533 15.9072 141.533 13.877C141.533 11.8906 142.5 10.6689 143.967 10.6689C145.207 10.6689 145.945 11.4512 146.138 12.4355H147.949ZM153.538 10.6162C154.866 10.6162 155.762 11.6094 155.806 13.0244H151.183C151.28 11.627 152.211 10.6162 153.538 10.6162ZM155.797 15.7842C155.542 16.5928 154.743 17.1377 153.661 17.1377C152.141 17.1377 151.174 16.0742 151.174 14.4658V14.3516H157.704V13.7012C157.704 10.8975 156.105 9.08691 153.538 9.08691C150.928 9.08691 149.258 11.0205 149.258 13.9209C149.258 16.8389 150.902 18.6758 153.618 18.6758C155.736 18.6758 157.335 17.4717 157.599 15.7842H155.797Z" fill="white"/>
</svg>
