<svg width="177" height="291" viewBox="0 0 177 291" fill="none" xmlns="http://www.w3.org/2000/svg">
<g clip-path="url(#clip0_4_2367)">
<path d="M106.5 291C143.606 291 173.686 288.197 173.686 284.74C173.686 281.283 143.606 278.48 106.5 278.48C69.3949 278.48 39.3149 281.283 39.3149 284.74C39.3149 288.197 69.3949 291 106.5 291Z" fill="black" fill-opacity="0.1"/>
<path d="M141.61 30.4148C141.61 30.4148 137.901 34.3697 139.454 35.652C141.006 36.9343 147.203 41.0477 148.209 38.339L141.61 30.4148Z" fill="#EF7D78"/>
<path d="M160.48 39.0594C160.48 39.0594 160.48 30.7462 149.237 24.3924C149.237 24.3924 144.672 19.4865 141.847 18.8094C139.022 18.1322 133.027 18.9318 133.372 20.9273C133.717 22.9228 137.369 23.1533 140.028 23.247C142.688 23.3406 143.227 26.1933 143.227 26.1933C143.227 26.1933 139.525 29.8385 140.028 31.6827C140.197 32.2233 140.494 32.7145 140.895 33.1138C141.296 33.513 141.788 33.8081 142.329 33.9735C142.329 33.9735 142.602 35.724 145.585 36.4084C145.996 37.5084 146.753 38.4442 147.742 39.0738C148.275 39.3489 148.858 39.5131 149.456 39.5564C150.054 39.5998 150.654 39.5214 151.221 39.326C151.221 39.326 151.868 46.8396 160.48 39.0594Z" fill="#FDA092"/>
<path d="M142.652 33.2745C143.78 30.822 145.511 28.6974 147.684 27.1008" stroke="#D04949" stroke-width="1.32" stroke-linecap="round" stroke-linejoin="round"/>
<path d="M145.765 35.6519C146.905 33.4518 148.579 31.5741 150.632 30.1914" stroke="#D04949" stroke-width="1.32" stroke-linecap="round" stroke-linejoin="round"/>
<path d="M150.632 36.4587C150.632 36.4587 152.623 37.8347 154.399 37.3376" stroke="#D04949" stroke-width="1.32" stroke-linecap="round" stroke-linejoin="round"/>
<path d="M152.515 37.4456L151.416 39.0592" stroke="#D04949" stroke-width="1.32" stroke-linecap="round" stroke-linejoin="round"/>
<path d="M158.324 40.7305L160.48 38.3389C160.48 38.3389 179.538 70.6194 176.72 78.558C174.843 83.8385 153.069 82.9308 153.069 82.9308L150.711 62.0396L160.214 63.0481L151.962 41.2997L158.324 40.7305Z" fill="#FDA092"/>
<path d="M156.778 62.7095L164.182 82.7218C160.481 82.9822 156.77 83.0519 153.062 82.9307L150.704 62.0396L156.778 62.7095Z" fill="#EF7D78"/>
<path d="M85.761 263.056C82.6339 270.087 80.312 277.464 80.1538 285.813L109.527 285.957C109.656 278.083 106.321 271.038 101.159 264.98L85.761 263.056Z" fill="#3D6A9F"/>
<path d="M108.837 279.452L80.6498 279.755C80.3588 281.762 80.1932 283.785 80.1538 285.813L109.527 285.957C109.557 283.775 109.316 281.597 108.808 279.474L108.837 279.452Z" fill="#D4EFF9"/>
<path d="M109.527 197.033L100.944 266.737C95.6959 269.043 90.3691 268.675 84.9775 266.233L89.3483 197.198L109.527 197.033Z" fill="#FDA092"/>
<path d="M108.233 207.579C101.671 206.987 95.1992 205.638 88.9458 203.559L89.3484 197.198L109.527 197.033L108.233 207.579Z" fill="#EF7D78"/>
<path d="M118.34 264.98L133.372 266.665C142.652 268.193 148.274 272.429 151.66 282.413L113.646 282.111C113.445 276.52 115.084 269.497 118.34 264.98Z" fill="#3D6A9F"/>
<path d="M113.826 277.752L150.409 279.193C150.855 280.187 151.272 281.253 151.66 282.391L113.646 282.11C113.597 280.655 113.657 279.198 113.826 277.752Z" fill="#D4EFF9"/>
<path d="M139.525 193.366L133.429 267.566C128.206 268.732 122.765 268.468 117.679 266.802L119.397 197.198L139.525 193.366Z" fill="#FDA092"/>
<path d="M138.49 205.555C132.124 206.969 125.636 207.758 119.117 207.911L119.39 197.198L139.525 193.366L138.526 205.613L138.49 205.555Z" fill="#EF7D78"/>
<path d="M87.3355 146.908L82.4902 197.501C93.5585 200.436 105.017 201.615 116.45 200.995L116.716 198.985C125.917 200.736 135.298 201.96 144.752 201.06L143.17 146.311C126.032 149.495 106.716 148.256 87.3211 146.937L87.3355 146.908Z" fill="#E4B586"/>
<path d="M143.27 149.142C130.683 152.095 107.327 156.194 86.8032 152.477L87.3352 146.908C106.745 148.227 126.046 149.466 143.184 146.282L143.27 149.163V149.142Z" fill="#CF9168"/>
<path d="M116.744 198.992L119.62 170.249L128.555 169.139C124.652 170.703 124.343 195.7 131.912 201.103L130.626 201.017C127.125 200.649 127.355 200.678 123.631 200.174L116.73 198.992H116.744Z" fill="#CF9168"/>
<path d="M103.683 160.949L105.192 160.985C106.16 159.762 107.21 158.607 108.334 157.527C106.885 158.401 105.508 159.389 104.215 160.48L103.683 160.949Z" fill="#B0AB1E"/>
<path d="M112.654 160.833L111.597 158.924L111.245 158.341L111.044 157.988L110.713 157.469L110.116 156.482L109.29 155.243L108.988 154.768L108.83 154.544C108.218 153.644 107.6 152.787 106.996 151.98L106.925 151.879L106.644 151.519L105.631 150.208L105.156 149.631L104.905 149.314L104.624 148.99L104.193 148.464L103.215 147.348L102.985 147.088L102.82 146.901L102.561 146.627L101.224 145.187L100.606 144.574L100.347 144.3L100.074 144.048C99.4411 143.414 98.866 142.881 98.3772 142.442L96.6016 140.936C102.719 144.956 107.176 150.798 110.102 155.639C111.119 157.313 112.048 159.04 112.884 160.812H112.654V160.833Z" fill="#B0AB1E"/>
<path d="M82.5334 157.851L81.0957 159.573L82.8713 157.412L83.1301 157.123L84.0718 156.072L84.5103 155.611L84.7404 155.358L84.992 155.106L85.3946 154.681L86.286 153.802L86.4944 153.594L86.6454 153.449L86.8826 153.241L88.0903 152.117L88.651 151.641L88.8811 151.432L89.1255 151.238C89.7006 150.748 90.2182 150.337 90.6495 150.006L92.231 148.875C88.5246 150.95 85.2458 153.713 82.5694 157.015L82.476 157.837L82.5334 157.851Z" fill="#B0AB1E"/>
<path d="M114.113 157.138V157.346H112.891L114.12 157.116L114.113 157.138Z" fill="#B0AB1E"/>
<path d="M114.156 155.048H114.027L114.156 154.984V155.048Z" fill="#B0AB1E"/>
<path d="M136.37 158.787H136.549L136.593 156.302L136.636 155.661V155.272L136.686 154.696L136.751 153.601L136.895 152.196L136.938 151.67L136.974 151.404C137.081 150.381 137.218 149.401 137.369 148.457V148.342L137.448 147.924L137.714 146.382L137.858 145.662L137.93 145.287L138.016 144.898L138.153 144.272L138.476 142.91L138.548 142.6L138.605 142.37L138.706 142.031L139.195 140.259L139.439 139.481L139.533 139.143L139.648 138.818C139.907 138.012 140.151 137.32 140.367 136.751L141.186 134.741C137.836 140.648 136.686 147.485 136.377 152.837C136.266 154.814 136.266 156.796 136.377 158.773L136.37 158.787Z" fill="#B0AB1E"/>
<path d="M141.208 157.404L140.489 157.577C130.561 159.789 114.2 158.982 96.6378 157.577L95.811 157.512V63.8622L138.763 62.5583L140.381 125.196L140.819 142.147L141.208 157.404Z" fill="#EAEAEA"/>
<path d="M141.208 124.929L140.812 142.175L140.46 157.577C130.532 159.789 114.171 158.982 96.6089 157.577L105.02 87.2314C105.02 87.2314 116.191 133.041 140.352 125.225L141.208 124.929Z" fill="#DFDFDF"/>
<path d="M106.357 49.5625C106.357 49.5625 108.003 57.7317 104.387 60.1882C104.387 60.1882 109.728 73.926 120.497 72.0025C131.266 70.0791 126.967 60.8221 126.967 60.8221L123.078 58.661C123.078 58.661 122.431 57.4435 122.165 53.078L106.357 49.5625Z" fill="#FDA092"/>
<path d="M106.716 54.4107C110.124 58.5169 117.348 64.9356 126.952 60.8005L123.099 58.6394C123.099 58.6394 122.452 57.4219 122.186 53.0564L106.371 49.5481C106.66 51.1518 106.776 52.7821 106.716 54.4107Z" fill="#EF7D78"/>
<path d="M133.357 32.9073C136.434 32.4607 139.216 34.0887 139.576 36.5092C139.935 38.9297 137.728 41.3214 134.659 41.7752C131.589 42.2291 128.807 40.5938 128.448 38.1373C128.088 35.6808 130.288 33.3611 133.357 32.9073Z" fill="#EF7D78"/>
<path d="M111.633 12.3691C128.009 10.2079 131.273 17.9089 133.293 29.6584C135.313 41.4079 131.898 53.4311 122.093 55.088C111.353 56.9322 102.453 49.1088 100.433 37.3593C98.4129 25.6098 101.77 13.6874 111.633 12.3691Z" fill="#FDA092"/>
<path d="M97.673 42.863C97.673 42.863 91.7711 30.6741 94.2727 21.3451C96.7744 12.0161 103.956 0.965342 107.859 1.10222C111.763 1.23909 109.836 4.83382 109.836 4.83382C109.836 4.83382 115.652 -0.749176 120.885 0.0864716C126.119 0.922119 123.89 3.59475 123.89 3.59475C123.89 3.59475 130.36 1.91625 132.682 4.74016C135.004 7.56408 131.87 12.0953 131.87 12.0953C131.87 12.0953 135.392 11.447 136.837 14.487C138.354 17.6855 134.68 21.6909 134.68 21.6909C135.09 27.3507 134.775 33.0398 133.746 38.6199C133.415 31.9275 133.171 27.5548 130.799 21.3307C122.992 20.4734 114.804 21.1506 105.818 22.4977L105.221 32.3309C104.093 36.5092 102.755 39.3403 103.697 42.8558L97.673 42.863Z" fill="#573333"/>
<path d="M100.081 8.37811C102.806 4.0558 105.789 1.03018 107.859 1.10222C111.763 1.24629 109.836 4.83382 109.836 4.83382C109.836 4.83382 115.652 -0.749176 120.885 0.0864716C126.119 0.92212 123.89 3.59475 123.89 3.59475C123.89 3.59475 130.36 1.91625 132.682 4.74017C135.004 7.56408 131.869 12.0953 131.869 12.0953C131.869 12.0953 135.392 11.447 136.837 14.487C137.097 15.0505 137.223 15.6672 137.203 16.288C136.534 15.2341 135.572 14.3997 134.435 13.8877C133.298 13.3756 132.036 13.2083 130.806 13.4064C132.107 1.11662 123.106 5.7343 123.106 5.7343C121.058 -2.651 109.491 7.42 109.491 7.42C108.362 2.96802 103.668 5.58302 100.081 8.41413V8.37811Z" fill="#784E47"/>
<path d="M105.559 17.5414L104.25 17.3037L99.7646 42.6325L101.073 42.863L105.559 17.5414Z" fill="#E43B3F"/>
<path d="M117.708 17.2822C117.577 16.7769 117.284 16.3289 116.874 16.0071C116.469 15.6725 115.961 15.4869 115.436 15.4812H105.063C104.843 15.4741 104.624 15.5179 104.423 15.6091C104.222 15.7002 104.045 15.8364 103.905 16.0071C103.775 16.1892 103.687 16.3984 103.649 16.6191C103.61 16.8399 103.622 17.0665 103.683 17.2822C103.898 18.1899 104.179 19.3497 104.473 20.5671C104.998 22.4992 106.122 24.214 107.683 25.4637C109.244 26.7134 111.161 27.4331 113.157 27.5189C117.032 27.5189 119.426 24.4068 118.499 20.5671C118.204 19.3497 117.931 18.1899 117.708 17.2822Z" fill="#E43B3F"/>
<path d="M116.974 18.9461C116.857 18.5121 116.606 18.1266 116.255 17.8456C115.905 17.5646 115.475 17.4025 115.026 17.3829H106.4C106.206 17.3722 106.013 17.409 105.837 17.49C105.661 17.5709 105.507 17.6937 105.389 17.8476C105.271 18.0015 105.192 18.182 105.159 18.3734C105.126 18.5648 105.14 18.7614 105.199 18.9461C105.307 19.3784 105.429 19.8826 105.552 20.3869C105.99 22.0123 106.934 23.4554 108.246 24.5072C109.557 25.559 111.17 26.1647 112.848 26.2365C116.09 26.2365 118.096 23.6287 117.327 20.4085C117.24 19.8826 117.082 19.3784 116.974 18.9461Z" fill="#214E78"/>
<path d="M115.738 18.6293C115.693 18.4701 115.6 18.3289 115.471 18.2255C115.342 18.1221 115.184 18.0618 115.019 18.053H109.987C109.915 18.0482 109.843 18.0611 109.778 18.0906C109.712 18.1201 109.655 18.1653 109.611 18.2223C109.567 18.2792 109.538 18.3461 109.525 18.417C109.513 18.488 109.519 18.5609 109.541 18.6293V18.7302C109.586 18.8894 109.679 19.0306 109.808 19.1339C109.937 19.2373 110.095 19.2976 110.26 19.3065H115.328C115.4 19.3113 115.472 19.2984 115.537 19.2688C115.603 19.2393 115.66 19.1941 115.704 19.1372C115.748 19.0803 115.777 19.0134 115.79 18.9424C115.802 18.8714 115.796 18.7985 115.774 18.7302L115.738 18.6293Z" fill="#CADFF4"/>
<path d="M134.141 17.2822C134.007 16.7782 133.715 16.331 133.307 16.0071C132.902 15.6725 132.394 15.4869 131.869 15.4812H121.496C121.276 15.4741 121.057 15.5179 120.856 15.6091C120.655 15.7002 120.478 15.8364 120.339 16.0071C120.208 16.1892 120.12 16.3984 120.082 16.6191C120.043 16.8399 120.055 17.0665 120.116 17.2822C120.331 18.1899 120.612 19.3497 120.906 20.5671C121.431 22.4992 122.555 24.214 124.116 25.4637C125.677 26.7134 127.594 27.4331 129.59 27.5189C133.465 27.5189 135.852 24.4068 134.932 20.5671C134.637 19.3497 134.364 18.1899 134.141 17.2822Z" fill="#E43B3F"/>
<path d="M133.408 18.9461C133.29 18.5121 133.039 18.1266 132.688 17.8456C132.338 17.5646 131.908 17.4025 131.459 17.3829H122.833C122.64 17.3722 122.446 17.409 122.27 17.49C122.094 17.5709 121.94 17.6937 121.822 17.8476C121.704 18.0015 121.625 18.182 121.592 18.3734C121.559 18.5648 121.573 18.7614 121.633 18.9461C121.74 19.3784 121.855 19.8826 121.985 20.3869C122.423 22.0123 123.367 23.4554 124.679 24.5072C125.991 25.559 127.603 26.1647 129.281 26.2365C132.531 26.2365 134.536 23.6287 133.76 20.4085C133.638 19.8826 133.515 19.3784 133.408 18.9461Z" fill="#214E78"/>
<path d="M132.171 18.6292C132.126 18.47 132.033 18.3288 131.904 18.2254C131.775 18.1221 131.617 18.0617 131.452 18.0529H126.37C126.299 18.0498 126.228 18.0639 126.163 18.0939C126.098 18.1239 126.042 18.1691 125.998 18.2255C125.955 18.282 125.925 18.3481 125.912 18.4183C125.899 18.4886 125.903 18.5609 125.924 18.6292C125.927 18.6628 125.927 18.6965 125.924 18.7301C125.969 18.8893 126.062 19.0305 126.191 19.1339C126.32 19.2372 126.478 19.2975 126.643 19.3064H131.675C131.747 19.3112 131.819 19.2983 131.884 19.2688C131.95 19.2393 132.007 19.194 132.051 19.1371C132.095 19.0802 132.124 19.0133 132.137 18.9423C132.149 18.8713 132.143 18.7985 132.121 18.7301L132.171 18.6292Z" fill="#CADFF4"/>
<path d="M121.719 15.7981C119.785 15.1965 117.715 15.1965 115.781 15.7981V17.383C117.706 16.7232 119.795 16.7232 121.719 17.383V15.7981Z" fill="#E43B3F"/>
<path d="M100.915 34.5928C104.243 34.9386 106.73 37.3303 106.464 39.9309C106.198 42.5315 103.273 44.3613 99.9442 44.0227C96.6158 43.6841 94.1285 41.2852 94.3945 38.6846C94.6605 36.084 97.5863 34.2543 100.915 34.5928Z" fill="#FDA092"/>
<path d="M116.996 28.3977C112.446 27.2451 109.714 29.1181 108.427 32.3598C110.85 30.7206 113.79 30.0309 116.687 30.422L116.996 28.3977Z" fill="#573333"/>
<path d="M125.73 28.023C129.267 27.1225 132.2 27.3962 132.459 31.2071C130.712 29.2836 127.865 29.3845 125.436 30.393L125.73 28.023Z" fill="#573333"/>
<path d="M124.975 31.207C123.796 35.7166 126.413 39.1313 126.557 40.1326C126.701 41.1339 125.708 42.3586 124.774 43.1078" stroke="#D04949" stroke-width="1.27" stroke-linecap="round" stroke-linejoin="round"/>
<path d="M113.897 37.8059C114.469 37.8059 114.933 37.0931 114.933 36.2139C114.933 35.3346 114.469 34.6218 113.897 34.6218C113.326 34.6218 112.862 35.3346 112.862 36.2139C112.862 37.0931 113.326 37.8059 113.897 37.8059Z" fill="#30385B"/>
<path d="M128.577 34.6289C129.152 34.6289 129.619 35.3493 129.619 36.2138C129.619 37.0782 129.152 37.8058 128.577 37.8058C128.002 37.8058 127.542 37.0854 127.542 36.2138C127.542 35.3421 128.024 34.6289 128.577 34.6289Z" fill="#30385B"/>
<path d="M124.674 45.4924C121.87 45.7373 118.779 44.6207 115.594 43.1079C115.594 43.1079 114.48 48.9719 118.47 50.1317C124.329 51.8462 124.674 45.4924 124.674 45.4924Z" fill="white"/>
<path d="M105.738 57.5662C113.581 78.5366 115.414 115.406 114.034 160.754C103.433 161.579 92.7682 160.605 82.4902 157.873C86.6237 126.529 87.5583 95.5521 87.1845 66.3837C92.6119 62.5656 96.0841 60.5414 105.738 57.631V57.5662Z" fill="#B0AB1E"/>
<path d="M111.382 81.2234C111.382 81.2234 111.31 67.0895 105.983 56.9104C105.983 56.9104 99.8726 58.099 97.5938 60.7645L98.9237 75.6909C98.9237 75.6909 106.953 75.1506 111.382 81.2234Z" fill="#DFD153"/>
<path d="M102.144 160.905C101.209 159.619 100.438 158.22 99.8512 156.742L101.145 155.949L102.439 155.229L101.001 155.704C100.541 155.877 100.096 156.079 99.6499 156.295L99.0748 154.789C98.8663 154.177 98.6651 153.558 98.4638 152.945L98.0756 151.54C99.0632 151.32 100.069 151.192 101.08 151.159H102.597L104.078 151.31L102.518 150.784C100.955 150.296 99.3251 150.053 97.6874 150.064L97.4501 149.178L96.7313 146.029C97.6626 146.012 98.5931 146.097 99.5061 146.282L98.0684 145.77L96.6307 145.403C96.0412 142.327 95.7896 140.108 95.7896 140.108C97.8781 140.156 99.9418 140.573 101.886 141.34V142.406L101.986 143.487L102.166 141.441C104.228 142.198 106.22 143.135 108.118 144.243L107.701 145.424L107.371 146.656C107.68 145.936 108.039 145.158 108.434 144.423L109.808 145.28L110.584 145.828C109.635 147.209 108.844 148.693 108.226 150.251C109.153 148.881 110.25 147.635 111.49 146.541C112.502 147.299 113.44 148.15 114.293 149.084L114.164 155.07L114.034 155.135H114.164L114.121 157.195L112.891 157.426H114.114L114.042 160.819L112.891 160.884C112.055 159.112 111.127 157.385 110.109 155.711C107.184 150.87 102.727 145.028 96.6091 141.008L98.3847 142.514C98.8735 142.953 99.4486 143.487 100.081 144.12L100.354 144.373L100.613 144.646L101.231 145.259L102.569 146.699L102.827 146.973L102.993 147.16L103.215 147.42L104.2 148.536L104.632 149.062L104.912 149.386L105.156 149.703L105.638 150.28L106.652 151.591L106.932 151.951L107.004 152.052C107.608 152.859 108.226 153.716 108.83 154.616L108.995 154.84L109.297 155.315L110.124 156.554L110.72 157.541L111.051 158.06L111.252 158.413L111.605 158.996L112.661 160.905C110.203 161.064 107.716 161.129 105.2 161.078C106.167 159.856 107.217 158.7 108.341 157.62C106.893 158.495 105.515 159.483 104.222 160.574L103.69 161.042H102.576L102.123 161.006L102.144 160.905Z" fill="#E3D85C"/>
<path d="M86.0128 120.564C86.9626 119.91 87.9856 119.371 89.0608 118.957C89.7469 120.288 90.2729 121.695 90.628 123.15C90.5433 121.628 90.3024 120.12 89.9091 118.647L90.628 118.388L91.9148 118.021C92.037 118.741 92.1376 119.526 92.1879 120.261L92.2382 119.101L92.2023 117.949C93.9525 117.511 95.7416 117.248 97.5435 117.163L97.1769 118.986L97.5291 118.078L97.8095 117.156C99.5106 117.029 101.22 117.237 102.842 117.769C102.842 117.769 102.123 119.627 100.879 122.141L99.6426 122.055L98.3989 122.098C99.1602 122.199 99.9078 122.385 100.627 122.653L99.3119 125.203L98.9094 125.923C97.6444 125.46 96.3096 125.216 94.9628 125.203H93.6113L94.8118 125.484L95.9979 125.88C96.7893 126.185 97.546 126.574 98.2552 127.04L97.6082 128.157L96.6737 129.597L95.8542 130.75C95.5594 130.44 95.2575 130.145 94.9412 129.864L93.9635 129.064L94.8046 130.03L95.6169 131.074C94.642 132.447 93.4411 133.643 92.0657 134.611L91.2606 133.134C90.5236 131.838 89.6923 130.598 88.7733 129.424C89.665 131.289 90.4217 133.215 91.0377 135.188L90.6783 135.353L89.7797 135.649L88.9243 135.821C88.8724 135.19 88.7836 134.562 88.6583 133.941L88.3851 132.645L88.5001 134.222C88.5001 134.77 88.5361 135.317 88.5001 135.865C87.2739 135.979 86.0371 135.86 84.8555 135.512L84.9633 134.431L85.2652 130.339L85.8547 129.727L86.2716 129.316L86.5161 129.064L86.9042 128.704L87.6231 127.984L88.572 127.134L88.9243 126.802L89.104 126.651C89.8228 126.031 90.4914 125.455 91.1671 124.922L91.2462 124.85L91.5553 124.619L92.6696 123.755L93.1871 123.388L93.4603 123.179L93.7551 122.977L94.2223 122.638L95.2647 121.918L95.5019 121.76L95.6816 121.644L95.9548 121.479L97.3997 120.607L98.0324 120.24L98.3055 120.074L98.5787 119.93C99.2328 119.555 99.8151 119.245 100.304 119L102.065 118.179C96.3142 119.995 91.3684 123.849 87.8891 127.249C86.9258 128.185 86.0776 129.093 85.3587 129.914L85.8906 122.782L86.0128 120.535V120.564Z" fill="#E3D85C"/>
<path d="M83.4536 150.078C84.8059 149.489 86.2086 149.024 87.6446 148.688V150.546L87.8243 149.588L87.9321 148.63C89.5933 148.188 91.3247 148.075 93.0289 148.299C93.0289 148.299 92.6336 150.265 91.8931 152.96L90.6639 153.104L89.449 153.377C90.2158 153.331 90.9854 153.374 91.7422 153.507L90.9227 156.259L90.6495 157.023C89.3223 156.792 87.9654 156.792 86.6382 157.023L85.3155 157.304L86.5447 157.354L87.7812 157.527C88.6141 157.681 89.4285 157.923 90.211 158.247L89.794 159.429L86.6741 158.816L82.5981 157.837L82.9504 157.404L83.2092 157.116L84.1509 156.064L84.5894 155.603L84.8195 155.351L85.0711 155.099L85.4736 154.674L86.365 153.795L86.5735 153.586L86.7244 153.442L86.9617 153.233L88.1694 152.11L88.7301 151.634L88.9601 151.425L89.2046 151.231C89.7797 150.741 90.2972 150.33 90.7358 149.999L92.3101 148.868C88.6037 150.943 85.3249 153.705 82.6485 157.008L83.4823 150.064L83.4536 150.078Z" fill="#E3D85C"/>
<path d="M104.049 91.7916C102.968 91.3558 101.806 91.1544 100.642 91.2009C100.642 91.2009 100.721 92.6417 100.965 94.6587L101.777 94.846L102.568 95.1342C102.056 95.0439 101.534 95.0221 101.015 95.0694L101.303 97.1153L101.418 97.6916C102.329 97.618 103.245 97.7132 104.121 97.9725L104.984 98.2607L104.15 98.2174L103.301 98.2607C102.72 98.317 102.146 98.4378 101.591 98.6209L101.77 99.5286C101.864 99.9248 101.957 100.328 102.058 100.724L102.338 101.697C102.597 101.538 102.856 101.387 103.115 101.257L103.927 100.89L103.172 101.402L102.453 101.963C102.777 103.107 103.295 104.187 103.984 105.155L104.818 104.283C105.575 103.53 106.382 102.83 107.234 102.187C106.25 103.326 105.342 104.529 104.516 105.789L104.718 105.983L105.228 106.365L105.746 106.66C105.925 106.221 106.112 105.803 106.321 105.392L106.781 104.542L106.371 105.623C106.234 105.998 106.105 106.387 105.99 106.768C107.497 107.347 109.154 107.405 110.699 106.934C111.356 105.316 111.809 103.622 112.05 101.891H111.734C111.092 101.835 110.446 101.847 109.807 101.927C110.556 101.681 111.326 101.505 112.108 101.402L112.144 100.89C112.144 100.638 112.144 100.393 112.144 100.17V99.8743L111.324 100.119L110.533 100.422C111.037 100.092 111.569 99.808 112.122 99.5718C112.079 99.0628 111.97 98.5615 111.798 98.0806C111.263 96.8163 110.421 95.7067 109.347 94.8532C108.614 95.6545 107.97 96.5338 107.428 97.4754C107.814 96.432 108.295 95.4264 108.865 94.4714L108.441 94.1401L107.722 93.6286C107.478 94.1257 107.255 94.6371 107.061 95.1414L107.277 94.313L107.55 93.5205C106.519 92.8609 105.42 92.315 104.272 91.8925L104.114 93.2468V92.5264V91.806L104.049 91.7916ZM102.029 92.5984L101.066 91.6763C104.401 94.104 106.745 97.7924 108.254 100.876C109.128 102.66 109.85 104.516 110.411 106.423L109.692 104.643L108.973 102.979L108.794 102.605L108.693 102.381L108.52 102.05L108.211 101.423L107.787 100.638L107.629 100.335L107.543 100.191C107.226 99.6222 106.903 99.0819 106.587 98.5704L106.551 98.5056L106.457 98.2751L105.925 97.4466L105.674 97.0792L105.544 96.8847L105.393 96.683L105.171 96.3516L104.646 95.6313L104.531 95.4728L104.488 95.4223L104.437 95.3503L104.301 95.1846L103.582 94.2913L103.251 93.9023L103.115 93.7366L102.964 93.5782C102.626 93.1819 102.317 92.8578 102.058 92.5768L102.029 92.5984Z" fill="#E3D85C"/>
<path d="M85.3584 129.972V130.361L85.9478 129.749L86.3648 129.338L86.6092 129.086L86.9974 128.726L87.7163 128.006L88.6652 127.155L89.0174 126.824L89.1971 126.673C89.916 126.053 90.5845 125.477 91.2603 124.944L91.3394 124.872L91.6485 124.641L92.7627 123.777L93.2803 123.409L93.5535 123.201L93.8482 122.999L94.3155 122.66L95.3578 121.94L95.5951 121.781L95.7748 121.666L96.048 121.5L97.3995 120.607L98.0321 120.24L98.3052 120.074L98.5784 119.93C99.2325 119.555 99.8148 119.246 100.304 119.001L102.065 118.179C96.314 119.995 91.3681 123.849 87.8888 127.249C86.9255 128.186 86.0773 129.093 85.3584 129.915V129.972Z" fill="#B0AB1E"/>
<path d="M133.357 62.9761V58.6538L156.059 61.8451L159.359 89.1406C151.451 90.6318 144.421 91.9645 139.554 92.7425L133.357 62.9761Z" fill="#D4C548"/>
<path d="M123.351 57.5662C133.235 93.038 135.909 127.163 135.097 158.917C138.788 158.671 142.455 158.146 146.067 157.347C149.007 120.038 144.629 89.8106 140.417 59.6985C134.774 58.6477 129.076 57.9261 123.351 57.5374V57.5662Z" fill="#B0AB1E"/>
<path d="M122.495 56.9104L129.066 81.2234C130.733 77.4369 133.791 74.4392 137.606 72.8526C137.606 72.8526 132.336 60.4547 131.021 58.6537C129.705 56.8528 124.278 56.6078 122.495 56.9104Z" fill="#DFD153"/>
<path d="M135.083 139.38L136.75 137.457L137.807 139.164L137.419 138.184L136.966 137.248C138.26 135.811 139.814 134.633 141.545 133.776C141.545 133.776 142.314 135.8 143.184 138.703L142.113 139.596L141.135 140.605C141.825 140.089 142.57 139.652 143.357 139.301L144.183 142.305L144.37 143.162C142.991 143.79 141.724 144.64 140.618 145.676L139.525 146.75C139.913 146.505 140.309 146.267 140.704 146.029L141.962 145.417C142.828 145.038 143.732 144.75 144.658 144.56L144.96 145.929C145.06 146.541 145.161 147.16 145.269 147.773L145.449 149.307C144.981 149.307 144.514 149.307 144.054 149.307L142.659 149.458L144.097 149.545L145.535 149.725C145.755 151.567 145.663 153.432 145.262 155.243L143.515 154.724C141.949 154.292 140.354 153.977 138.742 153.781C140.841 154.534 142.884 155.439 144.852 156.489L144.687 156.907L144.219 157.75L143.925 157.815L142.796 157.995L141.998 157.375L140.812 156.583L142.077 157.721L142.408 158.06L141.373 158.226L136.563 158.751L136.607 156.266L136.65 155.625V155.236L136.7 154.66L136.765 153.565L136.908 152.16L136.952 151.634L136.987 151.367C137.095 150.345 137.232 149.365 137.383 148.421V148.306L137.462 147.888L137.728 146.346L137.872 145.626L137.944 145.251L138.03 144.862L138.166 144.236L138.49 142.874L138.562 142.564L138.619 142.334L138.72 141.995L139.209 140.223L139.453 139.445L139.547 139.106L139.662 138.782C139.92 137.975 140.165 137.284 140.381 136.715L141.2 134.705C137.85 140.612 136.7 147.449 136.391 152.801C136.28 154.778 136.28 156.76 136.391 158.737L135.118 158.874L135.248 147.268L135.593 147.456L135.248 147.175V146.858L135.097 139.337L135.083 139.38Z" fill="#E3D85C"/>
<path d="M138.39 88.2832C139.251 87.7089 140.237 87.3484 141.265 87.2314C141.265 87.2314 141.531 88.6722 141.776 90.6101L141.1 90.9054L140.467 91.2944C140.902 91.1375 141.357 91.0429 141.819 91.0135L142.034 93.0234V93.5925C141.226 93.6482 140.438 93.8714 139.72 94.248L139.001 94.6514L139.72 94.4929L140.438 94.4065C140.968 94.3819 141.499 94.4182 142.02 94.5145L142.077 95.415V96.6037V97.5834C141.819 97.4609 141.553 97.3601 141.294 97.2664L140.503 97.0359L141.28 97.4105L142.07 97.8571C142.055 98.979 141.848 100.09 141.459 101.142L140.525 100.422C139.695 99.8083 138.825 99.2501 137.922 98.7504C139.052 99.7051 140.123 100.728 141.129 101.812L140.999 102.021L140.633 102.468L140.252 102.821C139.993 102.424 139.734 102.05 139.454 101.682L138.85 100.962L139.461 101.942C139.669 102.288 139.863 102.662 140.057 102.986C138.842 103.764 137.381 104.059 135.96 103.815C135.013 102.359 134.23 100.803 133.624 99.1754L133.897 99.1178C134.452 98.9624 135.024 98.8801 135.6 98.8729C134.89 98.7387 134.167 98.6784 133.444 98.6928L133.293 98.2029C133.235 97.9652 133.178 97.7275 133.113 97.4825L133.07 97.1944L133.839 97.3169L134.608 97.4969C134.099 97.249 133.567 97.0512 133.02 96.9062C132.965 96.4026 132.977 95.8939 133.056 95.3934C133.225 94.1346 133.721 92.9423 134.493 91.9356C135.331 92.6062 136.099 93.3592 136.787 94.1832C136.203 93.2385 135.544 92.3423 134.817 91.5033L135.112 91.1287L135.651 90.5236C135.981 90.9703 136.298 91.4313 136.578 91.8851L136.197 91.1215L135.78 90.4012C136.532 89.6264 137.372 88.9422 138.282 88.3625L138.735 89.6447L138.598 88.9244L138.418 88.2472L138.39 88.2832ZM140.352 88.7803L140.978 87.7501C138.605 90.5668 137.383 94.4497 136.772 97.6338C136.404 99.4981 136.187 101.389 136.125 103.289L136.334 101.473L136.6 99.7662L136.672 99.3844L136.715 99.1538L136.787 98.8081L136.916 98.1597L137.11 97.3385L137.182 97.0287L137.225 96.8774C137.369 96.2795 137.527 95.7176 137.692 95.1773V95.1125L137.771 94.8747L138.052 94.0031L138.188 93.6141L138.26 93.4052L138.339 93.189L138.469 92.836L138.764 92.1157L138.835 91.9428V91.8851V91.8203L138.914 91.633L139.339 90.6677L139.54 90.2571L139.626 90.0698L139.712 89.8969C139.921 89.4718 140.122 89.1045 140.288 88.8091L140.352 88.7803Z" fill="#E3D85C"/>
<path d="M146.916 124.252V123.813C146.03 124.994 145.216 126.228 144.479 127.508L144.802 127.739L145.614 128.207L146.412 128.546L146.973 127.026L146.93 124.252H146.916Z" fill="#E3D85C"/>
<path d="M146.879 123.366L146.699 118.208L146.304 117.725L146.053 117.445L145.14 116.4L144.708 115.939L144.485 115.687L144.234 115.435L143.846 115.017L142.969 114.124L142.767 113.915L142.624 113.771L142.386 113.562L141.2 112.438L140.654 111.962L140.424 111.753L140.187 111.552C139.626 111.062 139.115 110.651 138.691 110.32L137.139 109.182C140.792 111.294 144.018 114.075 146.649 117.38L146.39 113.108V113.173V113.065L146.247 110.745C144.806 110.07 143.307 109.53 141.768 109.131V110.932L141.61 110.003L141.516 109.066C139.883 108.596 138.177 108.434 136.484 108.591C136.484 108.591 136.837 110.507 137.527 113.129L138.749 113.309L139.956 113.612C139.195 113.545 138.428 113.564 137.67 113.67L138.44 116.35L138.691 117.07C140.021 116.889 141.372 116.933 142.688 117.2L144.004 117.509H142.774L141.538 117.639C140.709 117.764 139.895 117.971 139.108 118.259L139.518 119.447C139.719 119.966 139.928 120.485 140.136 121.003L140.704 122.257C141.056 122.026 141.423 121.81 141.775 121.608L142.889 121.061L141.876 121.781L140.877 122.595C141.553 124.104 142.484 125.483 143.63 126.673L144.708 125.448C145.406 124.685 146.148 123.964 146.93 123.287L146.879 123.366Z" fill="#E3D85C"/>
<path d="M7.7854 258.547L5.70068 272.025C8.15203 275.245 11.8326 275.973 16.4837 274.777L20.0277 267.141L7.80697 258.547H7.7854Z" fill="#363440"/>
<path d="M41.8093 258.547L39.7246 272.025C42.176 275.245 45.8566 275.973 50.5076 274.777L54.0516 267.141L41.8309 258.547H41.8093Z" fill="#363440"/>
<path d="M73.5976 191.205L81.8934 200.872L77.4939 205.058L73.8996 200.058L57.2722 255.24C56.7956 256.819 55.8263 258.204 54.5065 259.191C53.1868 260.177 51.5862 260.714 49.9397 260.722L10.5672 260.924L15.434 266.413L11.0488 268.79L2.48711 258.921C2.13246 258.596 1.80766 258.239 1.51663 257.855C0.797391 256.887 0.31421 255.764 0.105745 254.576C-0.10272 253.388 -0.0306667 252.167 0.316132 251.011L17.6409 193.503C18.1185 191.924 19.088 190.54 20.4075 189.554C21.727 188.567 23.3271 188.03 24.9733 188.021L67.1566 187.812C68.3616 187.805 69.5513 188.082 70.63 188.62C71.7088 189.158 72.6464 189.942 73.3676 190.91L73.5976 191.205Z" fill="#F19E44"/>
<path d="M73.835 191.5L77.5731 195.823L30.3146 195.959C28.9736 195.964 27.6677 196.389 26.5806 197.176C25.4935 197.963 24.68 199.072 24.2546 200.347L16.0235 224.955C15.9324 225.226 15.7888 225.477 15.601 225.693C15.4131 225.909 15.1847 226.086 14.9287 226.213C14.6727 226.341 14.3941 226.416 14.109 226.436C13.8238 226.456 13.5376 226.419 13.2666 226.327C12.9957 226.236 12.7454 226.092 12.5299 225.904C12.3145 225.716 12.1381 225.487 12.011 225.23C11.8838 224.974 11.8083 224.695 11.7888 224.409C11.7693 224.123 11.8061 223.836 11.8972 223.565L20.1283 198.985C20.8469 196.848 22.2147 194.99 24.0401 193.671C25.8655 192.352 28.057 191.638 30.3074 191.63L73.835 191.5Z" fill="#FFCE80"/>
<path d="M26.9577 203.271C27.3622 201.928 28.1859 200.751 29.3078 199.912C30.4296 199.073 31.7905 198.617 33.1902 198.61L77.7602 198.387C78.7839 198.382 79.7945 198.617 80.7109 199.074C81.6273 199.532 82.4238 200.198 83.0363 201.02C83.6489 201.842 84.0604 202.796 84.2377 203.807C84.4151 204.817 84.3533 205.855 84.0575 206.837L66.0354 266.629C65.6321 267.973 64.8089 269.153 63.687 269.993C62.565 270.833 61.2035 271.29 59.8028 271.297L15.2329 271.521C14.2089 271.525 13.1982 271.288 12.2819 270.83C11.3656 270.372 10.5693 269.705 9.95688 268.883C9.34449 268.06 8.93309 267.105 8.75572 266.095C8.57836 265.084 8.63996 264.046 8.9356 263.063L26.9577 203.271Z" fill="#FDC458"/>
<path d="M21.6308 244.586C21.9169 243.55 22.5336 242.638 23.3866 241.987C24.2396 241.337 25.2819 240.984 26.3538 240.984H62.0528C62.8057 240.985 63.5483 241.16 64.2228 241.495C64.8974 241.83 65.4859 242.316 65.9426 242.916C66.3993 243.516 66.712 244.213 66.8565 244.954C67.001 245.694 66.9734 246.458 66.7758 247.186C65.7191 251.062 64.3964 255.91 63.5121 259.166C63.2272 260.202 62.6107 261.115 61.7575 261.766C60.9042 262.417 59.8614 262.769 58.7892 262.768H23.0686C22.315 262.771 21.571 262.599 20.8948 262.265C20.2187 261.932 19.6288 261.446 19.1713 260.846C18.7138 260.246 18.4012 259.548 18.258 258.807C18.1147 258.065 18.1447 257.301 18.3456 256.573C19.4023 252.697 20.725 247.849 21.6092 244.593L21.6308 244.586Z" fill="#F19E44"/>
<path d="M32.4136 205.101C32.581 204.556 32.9184 204.078 33.3763 203.738C33.8342 203.399 34.3887 203.215 34.9584 203.214H73.9067C74.3256 203.215 74.7383 203.315 75.1117 203.505C75.485 203.695 75.8085 203.971 76.0561 204.31C76.3037 204.648 76.4685 205.04 76.5372 205.454C76.6058 205.868 76.5765 206.293 76.4515 206.693C75.8189 208.703 75.0498 211.153 74.5322 212.809C74.361 213.351 74.022 213.824 73.5644 214.16C73.1068 214.495 72.5544 214.676 71.9874 214.675L33.0606 214.733C32.6423 214.734 32.2296 214.636 31.856 214.447C31.4824 214.259 31.1583 213.985 30.9098 213.647C30.6614 213.31 30.4956 212.919 30.4259 212.506C30.3562 212.092 30.3846 211.668 30.5086 211.268C31.134 209.243 31.896 206.765 32.4136 205.101Z" fill="#F19E44"/>
<path d="M37.9347 208.22L50.6012 169.442C50.7702 168.972 51.0842 168.567 51.4978 168.287C51.9114 168.008 52.403 167.867 52.9016 167.886L79.0756 168.225C79.4349 168.225 79.7897 168.305 80.1142 168.459C80.4387 168.614 80.7248 168.839 80.9519 169.118C81.1649 169.383 81.3082 169.697 81.3685 170.032C81.4288 170.367 81.4042 170.711 81.2969 171.034L68.803 209.337C68.5841 209.906 68.1586 210.37 67.6118 210.638C67.0651 210.905 66.4377 210.955 65.8556 210.778C65.5688 210.712 65.2983 210.588 65.061 210.414C64.8237 210.239 64.6245 210.018 64.4756 209.764C64.3268 209.509 64.2315 209.227 64.1956 208.935C64.1597 208.642 64.184 208.345 64.2669 208.062L75.8551 172.525L54.6125 172.251L42.478 209.481C42.2591 210.05 41.8336 210.515 41.2868 210.782C40.7401 211.049 40.1127 211.099 39.5306 210.922C39.2429 210.856 38.9717 210.732 38.7338 210.557C38.4959 210.382 38.2963 210.161 38.1474 209.905C37.9985 209.65 37.9034 209.367 37.8681 209.073C37.8327 208.78 37.8579 208.482 37.9419 208.199L37.9347 208.22Z" fill="#C7E3F4"/>
<path d="M67.9188 157.844C67.9188 157.844 56.1437 158.362 54.8354 163.794C54.4376 165.151 54.168 166.543 54.0303 167.951L61.9378 168.052C61.9378 168.052 58.2788 178.072 60.5001 178.548C62.7214 179.023 68.0842 170.818 68.0842 170.818C68.0842 170.818 73.3894 170.242 74.9062 167.749C76.6243 164.911 76.6531 159.357 76.6531 159.357L67.8613 157.844H67.9188Z" fill="#FDA092"/>
<path d="M77.8033 101.531L65.5825 158.643L76.5381 160.754L93.6544 109.081L77.8033 101.531Z" fill="#FDA092"/>
<path d="M75.8696 110.572C80.0247 113.533 85.4737 114.549 92.0657 113.857L93.6544 109.052L77.8034 101.531L75.8696 110.572Z" fill="#EF7D78"/>
<path d="M97.4713 82.9884C97.0472 73.7819 92.2883 62.9761 92.2883 62.9761C81.6202 68.1484 78.2344 78.6157 73.5977 101.495C79.9188 106.702 87.1966 110.618 95.02 113.021C95.02 113.021 98.2765 100.681 97.4785 83.01L97.4713 82.9884Z" fill="#D4C548"/>
</g>
<defs>
<clipPath id="clip0_4_2367">
<rect width="177" height="291" fill="white"/>
</clipPath>
</defs>
</svg>
